<svg width="200" height="200" viewBox="0 0 200 200" fill="none" xmlns="http://www.w3.org/2000/svg">
<path d="M79.2322 173.595L119.091 27" stroke="#848484"/>
<path d="M99.2741 100.569L84.1166 157.137L57.863 141.98L99.2741 100.569Z" fill="white" stroke="black" stroke-width="4" stroke-linejoin="round"/>
<path d="M99.2741 100.569L57.863 141.98L42.7055 115.726L99.2741 100.569Z" fill="white" stroke="black" stroke-width="4" stroke-linejoin="round"/>
<path d="M99.2741 100.569L42.7055 115.726L22 79.863L57.863 59.1575L99.2741 100.569Z" fill="white" stroke="black" stroke-width="4" stroke-linejoin="round"/>
<path d="M99.2741 100.569L57.863 59.1575L84.1166 44L99.2741 100.569Z" fill="white" stroke="black" stroke-width="4" stroke-linejoin="round"/>
<path d="M99.2741 100.569L84.1166 44H114.432L99.2741 100.569Z" fill="white" stroke="black" stroke-width="4" stroke-linejoin="round"/>
<path d="M99.2741 100.569L114.432 44H155.843V85.411L99.2741 100.569Z" fill="white" stroke="black" stroke-width="4" stroke-linejoin="round"/>
<path d="M99.2741 100.569L155.843 85.411V115.726L99.2741 100.569Z" fill="white" stroke="black" stroke-width="4" stroke-linejoin="round"/>
<path d="M99.2741 100.569L155.843 115.726L140.685 141.98L99.2741 100.569Z" fill="white" stroke="black" stroke-width="4" stroke-linejoin="round"/>
<path d="M99.2741 100.569L140.685 141.98L119.98 177.843L84.1166 157.137L99.2741 100.569Z" fill="white" stroke="black" stroke-width="4" stroke-linejoin="round"/>
<path d="M66.2715 163H65.1816V155.775L62.9961 156.578V155.594L66.1016 154.428H66.2715V163Z" fill="#5177FF"/>
<path d="M22.2715 107H21.1816V99.7754L18.9961 100.578V99.5938L22.1016 98.4277H22.2715V107Z" fill="#FF0303"/>
<path d="M157.963 130.463V131.383H157.764C156.92 131.398 156.248 131.648 155.748 132.133C155.248 132.617 154.959 133.299 154.881 134.178C155.33 133.662 155.943 133.404 156.721 133.404C157.463 133.404 158.055 133.666 158.496 134.189C158.941 134.713 159.164 135.389 159.164 136.217C159.164 137.096 158.924 137.799 158.443 138.326C157.967 138.854 157.326 139.117 156.521 139.117C155.705 139.117 155.043 138.805 154.535 138.18C154.027 137.551 153.773 136.742 153.773 135.754V135.338C153.773 133.768 154.107 132.568 154.775 131.74C155.447 130.908 156.445 130.482 157.77 130.463H157.963ZM156.539 134.307C156.168 134.307 155.826 134.418 155.514 134.641C155.201 134.863 154.984 135.143 154.863 135.479V135.877C154.863 136.58 155.021 137.146 155.338 137.576C155.654 138.006 156.049 138.221 156.521 138.221C157.01 138.221 157.393 138.041 157.67 137.682C157.951 137.322 158.092 136.852 158.092 136.27C158.092 135.684 157.949 135.211 157.664 134.852C157.383 134.488 157.008 134.307 156.539 134.307Z" fill="#5177FF"/>
<path d="M140.285 163.207H141.1C141.611 163.199 142.014 163.064 142.307 162.803C142.6 162.541 142.746 162.188 142.746 161.742C142.746 160.742 142.248 160.242 141.252 160.242C140.783 160.242 140.408 160.377 140.127 160.646C139.85 160.912 139.711 161.266 139.711 161.707H138.627C138.627 161.031 138.873 160.471 139.365 160.025C139.861 159.576 140.49 159.352 141.252 159.352C142.057 159.352 142.688 159.564 143.145 159.99C143.602 160.416 143.83 161.008 143.83 161.766C143.83 162.137 143.709 162.496 143.467 162.844C143.229 163.191 142.902 163.451 142.488 163.623C142.957 163.771 143.318 164.018 143.572 164.361C143.83 164.705 143.959 165.125 143.959 165.621C143.959 166.387 143.709 166.994 143.209 167.443C142.709 167.893 142.059 168.117 141.258 168.117C140.457 168.117 139.805 167.9 139.301 167.467C138.801 167.033 138.551 166.461 138.551 165.75H139.641C139.641 166.199 139.787 166.559 140.08 166.828C140.373 167.098 140.766 167.232 141.258 167.232C141.781 167.232 142.182 167.096 142.459 166.822C142.736 166.549 142.875 166.156 142.875 165.645C142.875 165.148 142.723 164.768 142.418 164.502C142.113 164.236 141.674 164.1 141.1 164.092H140.285V163.207Z" fill="#FF0303"/>
</svg>
