<svg width="200" height="200" viewBox="0 0 200 200" fill="none" xmlns="http://www.w3.org/2000/svg">
<path d="M80.2322 173.595L120.091 27" stroke="#848484"/>
<path d="M100 100L84.8425 156.569H43.4315V115.157L100 100Z" fill="white" stroke="black" stroke-width="4" stroke-linejoin="round"/>
<path d="M100 100L43.4315 115.157V84.8425L100 100Z" fill="white" stroke="black" stroke-width="4" stroke-linejoin="round"/>
<path d="M100 100L43.4315 84.8425L58.589 58.5889L100 100Z" fill="white" stroke="black" stroke-width="4" stroke-linejoin="round"/>
<path d="M100 100L58.589 58.5889L79.2945 22.7259L115.157 43.4314L100 100Z" fill="white" stroke="black" stroke-width="4" stroke-linejoin="round"/>
<path d="M100 100L115.157 43.4315L141.411 58.589L100 100Z" fill="white" stroke="black" stroke-width="4" stroke-linejoin="round"/>
<path d="M100 100L141.411 58.5889L156.569 84.8425L100 100Z" fill="white" stroke="black" stroke-width="4" stroke-linejoin="round"/>
<path d="M100 100L156.569 84.8425V115.157L100 100Z" fill="white" stroke="black" stroke-width="4" stroke-linejoin="round"/>
<path d="M100 100L156.569 115.157V156.569H115.157L100 100Z" fill="white" stroke="black" stroke-width="4" stroke-linejoin="round"/>
<path d="M100 100L115.157 156.569H84.8425L100 100Z" fill="white" stroke="black" stroke-width="4" stroke-linejoin="round"/>
<path d="M101.271 171H100.182V163.775L97.9961 164.578V163.594L101.102 162.428H101.271V171Z" fill="#5177FF"/>
<path d="M168.963 97.4629V98.3828H168.764C167.92 98.3984 167.248 98.6484 166.748 99.1328C166.248 99.6172 165.959 100.299 165.881 101.178C166.33 100.662 166.943 100.404 167.721 100.404C168.463 100.404 169.055 100.666 169.496 101.189C169.941 101.713 170.164 102.389 170.164 103.217C170.164 104.096 169.924 104.799 169.443 105.326C168.967 105.854 168.326 106.117 167.521 106.117C166.705 106.117 166.043 105.805 165.535 105.18C165.027 104.551 164.773 103.742 164.773 102.754V102.338C164.773 100.768 165.107 99.5684 165.775 98.7402C166.447 97.9082 167.445 97.4824 168.77 97.4629H168.963ZM167.539 101.307C167.168 101.307 166.826 101.418 166.514 101.641C166.201 101.863 165.984 102.143 165.863 102.479V102.877C165.863 103.58 166.021 104.146 166.338 104.576C166.654 105.006 167.049 105.221 167.521 105.221C168.01 105.221 168.393 105.041 168.67 104.682C168.951 104.322 169.092 103.852 169.092 103.27C169.092 102.684 168.949 102.211 168.664 101.852C168.383 101.488 168.008 101.307 167.539 101.307Z" fill="#5177FF"/>
<path d="M61.2715 171H60.1816V163.775L57.9961 164.578V163.594L61.1016 162.428H61.2715V171Z" fill="#FF0303"/>
<path d="M166.285 138.207H167.1C167.611 138.199 168.014 138.064 168.307 137.803C168.6 137.541 168.746 137.188 168.746 136.742C168.746 135.742 168.248 135.242 167.252 135.242C166.783 135.242 166.408 135.377 166.127 135.646C165.85 135.912 165.711 136.266 165.711 136.707H164.627C164.627 136.031 164.873 135.471 165.365 135.025C165.861 134.576 166.49 134.352 167.252 134.352C168.057 134.352 168.688 134.564 169.145 134.99C169.602 135.416 169.83 136.008 169.83 136.766C169.83 137.137 169.709 137.496 169.467 137.844C169.229 138.191 168.902 138.451 168.488 138.623C168.957 138.771 169.318 139.018 169.572 139.361C169.83 139.705 169.959 140.125 169.959 140.621C169.959 141.387 169.709 141.994 169.209 142.443C168.709 142.893 168.059 143.117 167.258 143.117C166.457 143.117 165.805 142.9 165.301 142.467C164.801 142.033 164.551 141.461 164.551 140.75H165.641C165.641 141.199 165.787 141.559 166.08 141.828C166.373 142.098 166.766 142.232 167.258 142.232C167.781 142.232 168.182 142.096 168.459 141.822C168.736 141.549 168.875 141.156 168.875 140.645C168.875 140.148 168.723 139.768 168.418 139.502C168.113 139.236 167.674 139.1 167.1 139.092H166.285V138.207Z" fill="#FF0303"/>
</svg>
