<svg width="200" height="200" viewBox="0 0 200 200" fill="none" xmlns="http://www.w3.org/2000/svg">
<path d="M80.223 173L120.314 27" stroke="#848484"/>
<path d="M100 100L84.8425 156.569L58.589 141.411L100 100Z" fill="white" stroke="black" stroke-width="4" stroke-linejoin="round"/>
<path d="M100 100L58.589 141.411L43.4315 115.157L100 100Z" fill="white" stroke="black" stroke-width="4" stroke-linejoin="round"/>
<path d="M100 100L43.4315 115.158L22.7259 79.2945L58.589 58.589L100 100Z" fill="white" stroke="black" stroke-width="4" stroke-linejoin="round"/>
<path d="M100 100L58.589 58.589L79.2945 22.726L115.158 43.4315L100 100Z" fill="white" stroke="black" stroke-width="4" stroke-linejoin="round"/>
<path d="M100 100L115.157 43.4315L141.411 58.589L100 100Z" fill="white" stroke="black" stroke-width="4" stroke-linejoin="round"/>
<path d="M100 100L141.411 58.589L156.569 84.8425L100 100Z" fill="white" stroke="black" stroke-width="4" stroke-linejoin="round"/>
<path d="M100 100L156.569 84.8425V115.158L100 100Z" fill="white" stroke="black" stroke-width="4" stroke-linejoin="round"/>
<path d="M100 100L156.569 115.157V156.569H115.157L100 100Z" fill="white" stroke="black" stroke-width="4" stroke-linejoin="round"/>
<path d="M100 100L115.158 156.569H84.8425L100 100Z" fill="white" stroke="black" stroke-width="4" stroke-linejoin="round"/>
<path d="M132.271 44H131.182V36.7754L128.996 37.5781V36.5938L132.102 35.4277H132.271V44Z" fill="#5177FF"/>
<path d="M43.9629 130.463V131.383H43.7637C42.9199 131.398 42.248 131.648 41.748 132.133C41.248 132.617 40.959 133.299 40.8809 134.178C41.3301 133.662 41.9434 133.404 42.7207 133.404C43.4629 133.404 44.0547 133.666 44.4961 134.189C44.9414 134.713 45.1641 135.389 45.1641 136.217C45.1641 137.096 44.9238 137.799 44.4434 138.326C43.9668 138.854 43.3262 139.117 42.5215 139.117C41.7051 139.117 41.043 138.805 40.5352 138.18C40.0273 137.551 39.7734 136.742 39.7734 135.754V135.338C39.7734 133.768 40.1074 132.568 40.7754 131.74C41.4473 130.908 42.4453 130.482 43.7695 130.463H43.9629ZM42.5391 134.307C42.168 134.307 41.8262 134.418 41.5137 134.641C41.2012 134.863 40.9844 135.143 40.8633 135.479V135.877C40.8633 136.58 41.0215 137.146 41.3379 137.576C41.6543 138.006 42.0488 138.221 42.5215 138.221C43.0098 138.221 43.3926 138.041 43.6699 137.682C43.9512 137.322 44.0918 136.852 44.0918 136.27C44.0918 135.684 43.9492 135.211 43.6641 134.852C43.3828 134.488 43.0078 134.307 42.5391 134.307Z" fill="#5177FF"/>
<path d="M167.271 141H166.182V133.775L163.996 134.578V133.594L167.102 132.428H167.271V141Z" fill="#FF0303"/>
<path d="M61.2852 29.207H62.0996C62.6113 29.1992 63.0137 29.0645 63.3066 28.8027C63.5996 28.541 63.7461 28.1875 63.7461 27.7422C63.7461 26.7422 63.248 26.2422 62.252 26.2422C61.7832 26.2422 61.4082 26.377 61.127 26.6465C60.8496 26.9121 60.7109 27.2656 60.7109 27.707H59.627C59.627 27.0312 59.873 26.4707 60.3652 26.0254C60.8613 25.5762 61.4902 25.3516 62.252 25.3516C63.0566 25.3516 63.6875 25.5645 64.1445 25.9902C64.6016 26.416 64.8301 27.0078 64.8301 27.7656C64.8301 28.1367 64.709 28.4961 64.4668 28.8438C64.2285 29.1914 63.9023 29.4512 63.4883 29.623C63.957 29.7715 64.3184 30.0176 64.5723 30.3613C64.8301 30.7051 64.959 31.125 64.959 31.6211C64.959 32.3867 64.709 32.9941 64.209 33.4434C63.709 33.8926 63.0586 34.1172 62.2578 34.1172C61.457 34.1172 60.8047 33.9004 60.3008 33.4668C59.8008 33.0332 59.5508 32.4609 59.5508 31.75H60.6406C60.6406 32.1992 60.7871 32.5586 61.0801 32.8281C61.373 33.0977 61.7656 33.2324 62.2578 33.2324C62.7812 33.2324 63.1816 33.0957 63.459 32.8223C63.7363 32.5488 63.875 32.1562 63.875 31.6445C63.875 31.1484 63.7227 30.7676 63.418 30.502C63.1133 30.2363 62.6738 30.0996 62.0996 30.0918H61.2852V29.207Z" fill="#FF0303"/>
</svg>
