<svg width="200" height="200" viewBox="0 0 200 200" fill="none" xmlns="http://www.w3.org/2000/svg">
<path d="M69.223 155L109.314 9" stroke="#848484"/>
<path d="M89.2741 81.5685L74.1166 138.137L47.863 122.98L89.2741 81.5685Z" fill="white" stroke="black" stroke-width="4" stroke-linejoin="round"/>
<path d="M89.2741 81.5686L47.863 122.98L12 102.274L32.7055 66.4111L89.2741 81.5686Z" fill="white" stroke="black" stroke-width="4" stroke-linejoin="round"/>
<path d="M89.2741 81.5685L32.7055 66.411L47.863 40.1575L89.2741 81.5685Z" fill="white" stroke="black" stroke-width="4" stroke-linejoin="round"/>
<path d="M89.2741 81.5685L47.863 40.1575L74.1166 25L89.2741 81.5685Z" fill="white" stroke="black" stroke-width="4" stroke-linejoin="round"/>
<path d="M89.2741 81.5685L74.1166 25H104.432L89.2741 81.5685Z" fill="white" stroke="black" stroke-width="4" stroke-linejoin="round"/>
<path d="M89.2741 81.5685L104.432 25L130.685 40.1575L89.2741 81.5685Z" fill="white" stroke="black" stroke-width="4" stroke-linejoin="round"/>
<path d="M89.2741 81.5685L130.685 40.1575L166.548 60.863L145.843 96.726L89.2741 81.5685Z" fill="white" stroke="black" stroke-width="4" stroke-linejoin="round"/>
<path d="M89.2741 81.5685L145.843 96.726L130.685 122.98L89.2741 81.5685Z" fill="white" stroke="black" stroke-width="4" stroke-linejoin="round"/>
<path d="M89.2741 81.5685L130.685 122.98L109.98 158.843L74.1166 138.137L89.2741 81.5685Z" fill="white" stroke="black" stroke-width="4" stroke-linejoin="round"/>
<path d="M147.271 120H146.182V112.775L143.996 113.578V112.594L147.102 111.428H147.271V120Z" fill="#5177FF"/>
<path d="M122.963 17.4629V18.3828H122.764C121.92 18.3984 121.248 18.6484 120.748 19.1328C120.248 19.6172 119.959 20.2988 119.881 21.1777C120.33 20.6621 120.943 20.4043 121.721 20.4043C122.463 20.4043 123.055 20.666 123.496 21.1895C123.941 21.7129 124.164 22.3887 124.164 23.2168C124.164 24.0957 123.924 24.7988 123.443 25.3262C122.967 25.8535 122.326 26.1172 121.521 26.1172C120.705 26.1172 120.043 25.8047 119.535 25.1797C119.027 24.5508 118.773 23.7422 118.773 22.7539V22.3379C118.773 20.7676 119.107 19.5684 119.775 18.7402C120.447 17.9082 121.445 17.4824 122.77 17.4629H122.963ZM121.539 21.3066C121.168 21.3066 120.826 21.418 120.514 21.6406C120.201 21.8633 119.984 22.1426 119.863 22.4785V22.877C119.863 23.5801 120.021 24.1465 120.338 24.5762C120.654 25.0059 121.049 25.2207 121.521 25.2207C122.01 25.2207 122.393 25.041 122.67 24.6816C122.951 24.3223 123.092 23.8516 123.092 23.2695C123.092 22.6836 122.949 22.2109 122.664 21.8516C122.383 21.4883 122.008 21.3066 121.539 21.3066Z" fill="#5177FF"/>
<path d="M155.271 46H154.182V38.7754L151.996 39.5781V38.5938L155.102 37.4277H155.271V46Z" fill="#FF0303"/>
<path d="M20.2852 120.207H21.0996C21.6113 120.199 22.0137 120.064 22.3066 119.803C22.5996 119.541 22.7461 119.188 22.7461 118.742C22.7461 117.742 22.248 117.242 21.252 117.242C20.7832 117.242 20.4082 117.377 20.127 117.646C19.8496 117.912 19.7109 118.266 19.7109 118.707H18.627C18.627 118.031 18.873 117.471 19.3652 117.025C19.8613 116.576 20.4902 116.352 21.252 116.352C22.0566 116.352 22.6875 116.564 23.1445 116.99C23.6016 117.416 23.8301 118.008 23.8301 118.766C23.8301 119.137 23.709 119.496 23.4668 119.844C23.2285 120.191 22.9023 120.451 22.4883 120.623C22.957 120.771 23.3184 121.018 23.5723 121.361C23.8301 121.705 23.959 122.125 23.959 122.621C23.959 123.387 23.709 123.994 23.209 124.443C22.709 124.893 22.0586 125.117 21.2578 125.117C20.457 125.117 19.8047 124.9 19.3008 124.467C18.8008 124.033 18.5508 123.461 18.5508 122.75H19.6406C19.6406 123.199 19.7871 123.559 20.0801 123.828C20.373 124.098 20.7656 124.232 21.2578 124.232C21.7812 124.232 22.1816 124.096 22.459 123.822C22.7363 123.549 22.875 123.156 22.875 122.645C22.875 122.148 22.7227 121.768 22.418 121.502C22.1133 121.236 21.6738 121.1 21.0996 121.092H20.2852V120.207Z" fill="#FF0303"/>
</svg>
