<svg width="200" height="200" viewBox="0 0 200 200" fill="none" xmlns="http://www.w3.org/2000/svg">
<path d="M80.223 173L120.314 27" stroke="#848484"/>
<path d="M100 100L84.8425 156.569L58.589 141.411L100 100Z" fill="white" stroke="black" stroke-width="4" stroke-linejoin="round"/>
<path d="M100 100L58.589 141.411L22.7259 120.706L43.4315 84.8425L100 100Z" fill="white" stroke="black" stroke-width="4" stroke-linejoin="round"/>
<path d="M100 100L43.4315 84.8425L58.589 58.5889L100 100Z" fill="white" stroke="black" stroke-width="4" stroke-linejoin="round"/>
<path d="M100 100L58.589 58.589L84.8425 43.4315L100 100Z" fill="white" stroke="black" stroke-width="4" stroke-linejoin="round"/>
<path d="M100 100L84.8425 43.4315H115.157L100 100Z" fill="white" stroke="black" stroke-width="4" stroke-linejoin="round"/>
<path d="M100 100L115.157 43.4315L141.411 58.589L100 100Z" fill="white" stroke="black" stroke-width="4" stroke-linejoin="round"/>
<path d="M100 100L141.411 58.5889L156.569 84.8425L100 100Z" fill="white" stroke="black" stroke-width="4" stroke-linejoin="round"/>
<path d="M100 100L156.569 84.8425L177.274 120.706L141.411 141.411L100 100Z" fill="white" stroke="black" stroke-width="4" stroke-linejoin="round"/>
<path d="M100 100L141.411 141.411L115.157 156.569L100 100Z" fill="white" stroke="black" stroke-width="4" stroke-linejoin="round"/>
<path d="M100 100L115.157 156.569H84.8425L100 100Z" fill="white" stroke="black" stroke-width="4" stroke-linejoin="round"/>
<path d="M135.271 163H134.182V155.775L131.996 156.578V155.594L135.102 154.428H135.271V163Z" fill="#5177FF"/>
<path d="M159.883 63.6953C159.883 64.1211 159.77 64.5 159.543 64.832C159.32 65.1641 159.018 65.4238 158.635 65.6113C159.08 65.8027 159.432 66.082 159.689 66.4492C159.951 66.8164 160.082 67.2324 160.082 67.6973C160.082 68.4355 159.832 69.0234 159.332 69.4609C158.836 69.8984 158.182 70.1172 157.369 70.1172C156.549 70.1172 155.891 69.8984 155.395 69.4609C154.902 69.0195 154.656 68.4316 154.656 67.6973C154.656 67.2363 154.781 66.8203 155.031 66.4492C155.285 66.0781 155.635 65.7969 156.08 65.6055C155.701 65.418 155.402 65.1582 155.184 64.8262C154.965 64.4941 154.855 64.1172 154.855 63.6953C154.855 62.9766 155.086 62.4062 155.547 61.9844C156.008 61.5625 156.615 61.3516 157.369 61.3516C158.119 61.3516 158.725 61.5625 159.186 61.9844C159.65 62.4062 159.883 62.9766 159.883 63.6953ZM158.998 67.6738C158.998 67.1973 158.846 66.8086 158.541 66.5078C158.24 66.207 157.846 66.0566 157.357 66.0566C156.869 66.0566 156.477 66.2051 156.18 66.502C155.887 66.7988 155.74 67.1895 155.74 67.6738C155.74 68.1582 155.883 68.5391 156.168 68.8164C156.457 69.0938 156.857 69.2324 157.369 69.2324C157.877 69.2324 158.275 69.0938 158.564 68.8164C158.854 68.5352 158.998 68.1543 158.998 67.6738ZM157.369 62.2422C156.943 62.2422 156.598 62.375 156.332 62.6406C156.07 62.9023 155.939 63.2598 155.939 63.7129C155.939 64.1465 156.068 64.498 156.326 64.7676C156.588 65.0332 156.936 65.166 157.369 65.166C157.803 65.166 158.148 65.0332 158.406 64.7676C158.668 64.498 158.799 64.1465 158.799 63.7129C158.799 63.2793 158.664 62.9258 158.395 62.6523C158.125 62.3789 157.783 62.2422 157.369 62.2422Z" fill="#5177FF"/>
<path d="M32.2715 142H31.1816V134.775L28.9961 135.578V134.594L32.1016 133.428H32.2715V142Z" fill="#FF0303"/>
<path d="M183.299 101H177.709V100.221L180.662 96.9395C181.1 96.4434 181.4 96.041 181.564 95.7324C181.732 95.4199 181.816 95.0977 181.816 94.7656C181.816 94.3203 181.682 93.9551 181.412 93.6699C181.143 93.3848 180.783 93.2422 180.334 93.2422C179.795 93.2422 179.375 93.3965 179.074 93.7051C178.777 94.0098 178.629 94.4355 178.629 94.9824H177.545C177.545 94.1973 177.797 93.5625 178.301 93.0781C178.809 92.5938 179.486 92.3516 180.334 92.3516C181.127 92.3516 181.754 92.5605 182.215 92.9785C182.676 93.3926 182.906 93.9453 182.906 94.6367C182.906 95.4766 182.371 96.4766 181.301 97.6367L179.016 100.115H183.299V101Z" fill="#FF0303"/>
</svg>
