<svg width="200" height="200" viewBox="0 0 200 200" fill="none" xmlns="http://www.w3.org/2000/svg">
<path d="M80.223 173L120.314 27" stroke="#848484"/>
<path d="M100 100L84.8425 156.569L58.589 141.411L100 100Z" fill="white" stroke="black" stroke-width="4" stroke-linejoin="round"/>
<path d="M100 100L58.589 141.411L22.7259 120.706L43.4315 84.8425L100 100Z" fill="white" stroke="black" stroke-width="4" stroke-linejoin="round"/>
<path d="M100 100L43.4315 84.8425L58.589 58.5889L100 100Z" fill="white" stroke="black" stroke-width="4" stroke-linejoin="round"/>
<path d="M100 100L58.589 58.589L84.8425 43.4315L100 100Z" fill="white" stroke="black" stroke-width="4" stroke-linejoin="round"/>
<path d="M100 100L84.8425 43.4315H115.158L100 100Z" fill="white" stroke="black" stroke-width="4" stroke-linejoin="round"/>
<path d="M100 100L115.157 43.4315L141.411 58.589L100 100Z" fill="white" stroke="black" stroke-width="4" stroke-linejoin="round"/>
<path d="M100 100L141.411 58.5889L156.569 84.8425L100 100Z" fill="white" stroke="black" stroke-width="4" stroke-linejoin="round"/>
<path d="M100 100L156.569 84.8425V115.158L100 100Z" fill="white" stroke="black" stroke-width="4" stroke-linejoin="round"/>
<path d="M100 100L156.569 115.157V156.569H115.157L100 100Z" fill="white" stroke="black" stroke-width="4" stroke-linejoin="round"/>
<path d="M100 100L115.158 156.569H84.8425L100 100Z" fill="white" stroke="black" stroke-width="4" stroke-linejoin="round"/>
<path d="M68.2715 163H67.1816V155.775L64.9961 156.578V155.594L68.1016 154.428H68.2715V163Z" fill="#5177FF"/>
<path d="M102.883 164.695C102.883 165.121 102.77 165.5 102.543 165.832C102.32 166.164 102.018 166.424 101.635 166.611C102.08 166.803 102.432 167.082 102.689 167.449C102.951 167.816 103.082 168.232 103.082 168.697C103.082 169.436 102.832 170.023 102.332 170.461C101.836 170.898 101.182 171.117 100.369 171.117C99.5488 171.117 98.8906 170.898 98.3945 170.461C97.9023 170.02 97.6562 169.432 97.6562 168.697C97.6562 168.236 97.7812 167.82 98.0312 167.449C98.2852 167.078 98.6348 166.797 99.0801 166.605C98.7012 166.418 98.4023 166.158 98.1836 165.826C97.9648 165.494 97.8555 165.117 97.8555 164.695C97.8555 163.977 98.0859 163.406 98.5469 162.984C99.0078 162.562 99.6152 162.352 100.369 162.352C101.119 162.352 101.725 162.562 102.186 162.984C102.65 163.406 102.883 163.977 102.883 164.695ZM101.998 168.674C101.998 168.197 101.846 167.809 101.541 167.508C101.24 167.207 100.846 167.057 100.357 167.057C99.8691 167.057 99.4766 167.205 99.1797 167.502C98.8867 167.799 98.7402 168.189 98.7402 168.674C98.7402 169.158 98.8828 169.539 99.168 169.816C99.457 170.094 99.8574 170.232 100.369 170.232C100.877 170.232 101.275 170.094 101.564 169.816C101.854 169.535 101.998 169.154 101.998 168.674ZM100.369 163.242C99.9434 163.242 99.5977 163.375 99.332 163.641C99.0703 163.902 98.9395 164.26 98.9395 164.713C98.9395 165.146 99.0684 165.498 99.3262 165.768C99.5879 166.033 99.9355 166.166 100.369 166.166C100.803 166.166 101.148 166.033 101.406 165.768C101.668 165.498 101.799 165.146 101.799 164.713C101.799 164.279 101.664 163.926 101.395 163.652C101.125 163.379 100.783 163.242 100.369 163.242Z" fill="#5177FF"/>
<path d="M35.2715 146H34.1816V138.775L31.9961 139.578V138.594L35.1016 137.428H35.2715V146Z" fill="#FF0303"/>
<path d="M170.299 141H164.709V140.221L167.662 136.939C168.1 136.443 168.4 136.041 168.564 135.732C168.732 135.42 168.816 135.098 168.816 134.766C168.816 134.32 168.682 133.955 168.412 133.67C168.143 133.385 167.783 133.242 167.334 133.242C166.795 133.242 166.375 133.396 166.074 133.705C165.777 134.01 165.629 134.436 165.629 134.982H164.545C164.545 134.197 164.797 133.562 165.301 133.078C165.809 132.594 166.486 132.352 167.334 132.352C168.127 132.352 168.754 132.561 169.215 132.979C169.676 133.393 169.906 133.945 169.906 134.637C169.906 135.477 169.371 136.477 168.301 137.637L166.016 140.115H170.299V141Z" fill="#FF0303"/>
</svg>
