<svg width="200" height="200" viewBox="0 0 200 200" fill="none" xmlns="http://www.w3.org/2000/svg">
<path d="M79.223 173L119.314 26.9999" stroke="#848484"/>
<path d="M100 100L84.8425 156.569L58.589 141.411L100 100Z" fill="white" stroke="black" stroke-width="4" stroke-linejoin="round"/>
<path d="M100 99.9999L58.589 141.411L22.7259 120.705L43.4315 84.8424L100 99.9999Z" fill="white" stroke="black" stroke-width="4" stroke-linejoin="round"/>
<path d="M100 99.9999L43.4315 84.8424L58.589 58.5889L100 99.9999Z" fill="white" stroke="black" stroke-width="4" stroke-linejoin="round"/>
<path d="M100 99.9999L58.589 58.5889L84.8425 43.4314L100 99.9999Z" fill="white" stroke="black" stroke-width="4" stroke-linejoin="round"/>
<path d="M100 99.9999L84.8425 43.4314H115.157L100 99.9999Z" fill="white" stroke="black" stroke-width="4" stroke-linejoin="round"/>
<path d="M100 99.9999L115.157 43.4314L141.411 58.5889L100 99.9999Z" fill="white" stroke="black" stroke-width="4" stroke-linejoin="round"/>
<path d="M100 99.9999L141.411 58.5889L156.569 84.8424L100 99.9999Z" fill="white" stroke="black" stroke-width="4" stroke-linejoin="round"/>
<path d="M100 99.9999L156.569 84.8424V115.157L100 99.9999Z" fill="white" stroke="black" stroke-width="4" stroke-linejoin="round"/>
<path d="M100 100L156.569 115.157L141.411 141.411L100 100Z" fill="white" stroke="black" stroke-width="4" stroke-linejoin="round"/>
<path d="M100 100L141.411 141.411L120.706 177.274L84.8425 156.569L100 100Z" fill="white" stroke="black" stroke-width="4" stroke-linejoin="round"/>
<path d="M32.2715 145H31.1816V137.775L28.9961 138.578V137.594L32.1016 136.428H32.2715V145Z" fill="#FF0303"/>
<path d="M143.299 168H137.709V167.221L140.662 163.939C141.1 163.443 141.4 163.041 141.564 162.732C141.732 162.42 141.816 162.098 141.816 161.766C141.816 161.32 141.682 160.955 141.412 160.67C141.143 160.385 140.783 160.242 140.334 160.242C139.795 160.242 139.375 160.396 139.074 160.705C138.777 161.01 138.629 161.436 138.629 161.982H137.545C137.545 161.197 137.797 160.562 138.301 160.078C138.809 159.594 139.486 159.352 140.334 159.352C141.127 159.352 141.754 159.561 142.215 159.979C142.676 160.393 142.906 160.945 142.906 161.637C142.906 162.477 142.371 163.477 141.301 164.637L139.016 167.115H143.299V168Z" fill="#FF0303"/>
<path d="M68.2715 163H67.1816V155.775L64.9961 156.578V155.594L68.1016 154.428H68.2715V163Z" fill="#5177FF"/>
<path d="M157.883 132.695C157.883 133.121 157.77 133.5 157.543 133.832C157.32 134.164 157.018 134.424 156.635 134.611C157.08 134.803 157.432 135.082 157.689 135.449C157.951 135.816 158.082 136.232 158.082 136.697C158.082 137.436 157.832 138.023 157.332 138.461C156.836 138.898 156.182 139.117 155.369 139.117C154.549 139.117 153.891 138.898 153.395 138.461C152.902 138.02 152.656 137.432 152.656 136.697C152.656 136.236 152.781 135.82 153.031 135.449C153.285 135.078 153.635 134.797 154.08 134.605C153.701 134.418 153.402 134.158 153.184 133.826C152.965 133.494 152.855 133.117 152.855 132.695C152.855 131.977 153.086 131.406 153.547 130.984C154.008 130.562 154.615 130.352 155.369 130.352C156.119 130.352 156.725 130.562 157.186 130.984C157.65 131.406 157.883 131.977 157.883 132.695ZM156.998 136.674C156.998 136.197 156.846 135.809 156.541 135.508C156.24 135.207 155.846 135.057 155.357 135.057C154.869 135.057 154.477 135.205 154.18 135.502C153.887 135.799 153.74 136.189 153.74 136.674C153.74 137.158 153.883 137.539 154.168 137.816C154.457 138.094 154.857 138.232 155.369 138.232C155.877 138.232 156.275 138.094 156.564 137.816C156.854 137.535 156.998 137.154 156.998 136.674ZM155.369 131.242C154.943 131.242 154.598 131.375 154.332 131.641C154.07 131.902 153.939 132.26 153.939 132.713C153.939 133.146 154.068 133.498 154.326 133.768C154.588 134.033 154.936 134.166 155.369 134.166C155.803 134.166 156.148 134.033 156.406 133.768C156.668 133.498 156.799 133.146 156.799 132.713C156.799 132.279 156.664 131.926 156.395 131.652C156.125 131.379 155.783 131.242 155.369 131.242Z" fill="#5177FF"/>
</svg>
