<svg width="200" height="200" viewBox="0 0 200 200" fill="none" xmlns="http://www.w3.org/2000/svg">
<path d="M80.223 174L120.314 27.9999" stroke="#848484"/>
<path d="M100 100L84.8425 156.569H43.4315V115.157L100 100Z" fill="white" stroke="black" stroke-width="4" stroke-linejoin="round"/>
<path d="M100 100L43.4315 115.158V84.8425L100 100Z" fill="white" stroke="black" stroke-width="4" stroke-linejoin="round"/>
<path d="M100 100L43.4315 84.8425L58.589 58.589L100 100Z" fill="white" stroke="black" stroke-width="4" stroke-linejoin="round"/>
<path d="M100 100L58.589 58.589L79.2945 22.726L115.157 43.4315L100 100Z" fill="white" stroke="black" stroke-width="4" stroke-linejoin="round"/>
<path d="M100 100L115.157 43.4315H156.569V84.8426L100 100Z" fill="white" stroke="black" stroke-width="4" stroke-linejoin="round"/>
<path d="M100 100L156.569 84.8425V115.158L100 100Z" fill="white" stroke="black" stroke-width="4" stroke-linejoin="round"/>
<path d="M100 100L156.569 115.157L141.411 141.411L100 100Z" fill="white" stroke="black" stroke-width="4" stroke-linejoin="round"/>
<path d="M100 100L141.411 141.411L120.706 177.274L84.8425 156.569L100 100Z" fill="white" stroke="black" stroke-width="4" stroke-linejoin="round"/>
<path d="M32.207 101.723L32.6406 97.4688H37.0117V98.4707H33.5605L33.3027 100.797C33.7207 100.551 34.1953 100.428 34.7266 100.428C35.5039 100.428 36.1211 100.686 36.5781 101.201C37.0352 101.713 37.2637 102.406 37.2637 103.281C37.2637 104.16 37.0254 104.854 36.5488 105.361C36.0762 105.865 35.4141 106.117 34.5625 106.117C33.8086 106.117 33.1934 105.908 32.7168 105.49C32.2402 105.072 31.9688 104.494 31.9023 103.756H32.9277C32.9941 104.244 33.168 104.613 33.4492 104.863C33.7305 105.109 34.1016 105.232 34.5625 105.232C35.0664 105.232 35.4609 105.061 35.7461 104.717C36.0352 104.373 36.1797 103.898 36.1797 103.293C36.1797 102.723 36.0234 102.266 35.7109 101.922C35.4023 101.574 34.9902 101.4 34.4746 101.4C34.002 101.4 33.6309 101.504 33.3613 101.711L33.0742 101.945L32.207 101.723Z" fill="#5177FF"/>
<path d="M159.883 132.695C159.883 133.121 159.77 133.5 159.543 133.832C159.32 134.164 159.018 134.424 158.635 134.611C159.08 134.803 159.432 135.082 159.689 135.449C159.951 135.816 160.082 136.232 160.082 136.697C160.082 137.436 159.832 138.023 159.332 138.461C158.836 138.898 158.182 139.117 157.369 139.117C156.549 139.117 155.891 138.898 155.395 138.461C154.902 138.02 154.656 137.432 154.656 136.697C154.656 136.236 154.781 135.82 155.031 135.449C155.285 135.078 155.635 134.797 156.08 134.605C155.701 134.418 155.402 134.158 155.184 133.826C154.965 133.494 154.855 133.117 154.855 132.695C154.855 131.977 155.086 131.406 155.547 130.984C156.008 130.562 156.615 130.352 157.369 130.352C158.119 130.352 158.725 130.562 159.186 130.984C159.65 131.406 159.883 131.977 159.883 132.695ZM158.998 136.674C158.998 136.197 158.846 135.809 158.541 135.508C158.24 135.207 157.846 135.057 157.357 135.057C156.869 135.057 156.477 135.205 156.18 135.502C155.887 135.799 155.74 136.189 155.74 136.674C155.74 137.158 155.883 137.539 156.168 137.816C156.457 138.094 156.857 138.232 157.369 138.232C157.877 138.232 158.275 138.094 158.564 137.816C158.854 137.535 158.998 137.154 158.998 136.674ZM157.369 131.242C156.943 131.242 156.598 131.375 156.332 131.641C156.07 131.902 155.939 132.26 155.939 132.713C155.939 133.146 156.068 133.498 156.326 133.768C156.588 134.033 156.936 134.166 157.369 134.166C157.803 134.166 158.148 134.033 158.406 133.768C158.668 133.498 158.799 133.146 158.799 132.713C158.799 132.279 158.664 131.926 158.395 131.652C158.125 131.379 157.783 131.242 157.369 131.242Z" fill="#5177FF"/>
<path d="M60.207 29.7227L60.6406 25.4688H65.0117V26.4707H61.5605L61.3027 28.7969C61.7207 28.5508 62.1953 28.4277 62.7266 28.4277C63.5039 28.4277 64.1211 28.6855 64.5781 29.2012C65.0352 29.7129 65.2637 30.4062 65.2637 31.2812C65.2637 32.1602 65.0254 32.8535 64.5488 33.3613C64.0762 33.8652 63.4141 34.1172 62.5625 34.1172C61.8086 34.1172 61.1934 33.9082 60.7168 33.4902C60.2402 33.0723 59.9688 32.4941 59.9023 31.7559H60.9277C60.9941 32.2441 61.168 32.6133 61.4492 32.8633C61.7305 33.1094 62.1016 33.2324 62.5625 33.2324C63.0664 33.2324 63.4609 33.0605 63.7461 32.7168C64.0352 32.373 64.1797 31.8984 64.1797 31.293C64.1797 30.7227 64.0234 30.2656 63.7109 29.9219C63.4023 29.5742 62.9902 29.4004 62.4746 29.4004C62.002 29.4004 61.6309 29.5039 61.3613 29.7109L61.0742 29.9453L60.207 29.7227Z" fill="#FF0303"/>
<path d="M64.8828 165.695C64.8828 166.121 64.7695 166.5 64.543 166.832C64.3203 167.164 64.0176 167.424 63.6348 167.611C64.0801 167.803 64.4316 168.082 64.6895 168.449C64.9512 168.816 65.082 169.232 65.082 169.697C65.082 170.436 64.832 171.023 64.332 171.461C63.8359 171.898 63.1816 172.117 62.3691 172.117C61.5488 172.117 60.8906 171.898 60.3945 171.461C59.9023 171.02 59.6562 170.432 59.6562 169.697C59.6562 169.236 59.7812 168.82 60.0312 168.449C60.2852 168.078 60.6348 167.797 61.0801 167.605C60.7012 167.418 60.4023 167.158 60.1836 166.826C59.9648 166.494 59.8555 166.117 59.8555 165.695C59.8555 164.977 60.0859 164.406 60.5469 163.984C61.0078 163.562 61.6152 163.352 62.3691 163.352C63.1191 163.352 63.7246 163.562 64.1855 163.984C64.6504 164.406 64.8828 164.977 64.8828 165.695ZM63.998 169.674C63.998 169.197 63.8457 168.809 63.541 168.508C63.2402 168.207 62.8457 168.057 62.3574 168.057C61.8691 168.057 61.4766 168.205 61.1797 168.502C60.8867 168.799 60.7402 169.189 60.7402 169.674C60.7402 170.158 60.8828 170.539 61.168 170.816C61.457 171.094 61.8574 171.232 62.3691 171.232C62.877 171.232 63.2754 171.094 63.5645 170.816C63.8535 170.535 63.998 170.154 63.998 169.674ZM62.3691 164.242C61.9434 164.242 61.5977 164.375 61.332 164.641C61.0703 164.902 60.9395 165.26 60.9395 165.713C60.9395 166.146 61.0684 166.498 61.3262 166.768C61.5879 167.033 61.9355 167.166 62.3691 167.166C62.8027 167.166 63.1484 167.033 63.4062 166.768C63.668 166.498 63.7988 166.146 63.7988 165.713C63.7988 165.279 63.6641 164.926 63.3945 164.652C63.125 164.379 62.7832 164.242 62.3691 164.242Z" fill="#FF0303"/>
</svg>
