<svg width="200" height="200" viewBox="0 0 200 200" fill="none" xmlns="http://www.w3.org/2000/svg">
<path d="M80.223 173L120.314 26.9999" stroke="#848484"/>
<path d="M100 100L84.8425 156.569H43.4315V115.157L100 100Z" fill="white" stroke="black" stroke-width="4" stroke-linejoin="round"/>
<path d="M100 99.9999L43.4315 115.157V84.8424L100 99.9999Z" fill="white" stroke="black" stroke-width="4" stroke-linejoin="round"/>
<path d="M100 99.9999L43.4315 84.8424V43.4314H84.8425L100 99.9999Z" fill="white" stroke="black" stroke-width="4" stroke-linejoin="round"/>
<path d="M100 99.9999L84.8425 43.4314H115.157L100 99.9999Z" fill="white" stroke="black" stroke-width="4" stroke-linejoin="round"/>
<path d="M100 99.9999L115.157 43.4314L141.411 58.5889L100 99.9999Z" fill="white" stroke="black" stroke-width="4" stroke-linejoin="round"/>
<path d="M100 99.9999L141.411 58.5889L177.274 79.2944L156.569 115.157L100 99.9999Z" fill="white" stroke="black" stroke-width="4" stroke-linejoin="round"/>
<path d="M100 100L156.569 115.157L141.411 141.411L100 100Z" fill="white" stroke="black" stroke-width="4" stroke-linejoin="round"/>
<path d="M100 100L141.411 141.411L120.706 177.274L84.8425 156.569L100 100Z" fill="white" stroke="black" stroke-width="4" stroke-linejoin="round"/>
<path d="M32.207 101.723L32.6406 97.4688H37.0117V98.4707H33.5605L33.3027 100.797C33.7207 100.551 34.1953 100.428 34.7266 100.428C35.5039 100.428 36.1211 100.686 36.5781 101.201C37.0352 101.713 37.2637 102.406 37.2637 103.281C37.2637 104.16 37.0254 104.854 36.5488 105.361C36.0762 105.865 35.4141 106.117 34.5625 106.117C33.8086 106.117 33.1934 105.908 32.7168 105.49C32.2402 105.072 31.9688 104.494 31.9023 103.756H32.9277C32.9941 104.244 33.168 104.613 33.4492 104.863C33.7305 105.109 34.1016 105.232 34.5625 105.232C35.0664 105.232 35.4609 105.061 35.7461 104.717C36.0352 104.373 36.1797 103.898 36.1797 103.293C36.1797 102.723 36.0234 102.266 35.7109 101.922C35.4023 101.574 34.9902 101.4 34.4746 101.4C34.002 101.4 33.6309 101.504 33.3613 101.711L33.0742 101.945L32.207 101.723Z" fill="#5177FF"/>
<path d="M159.883 132.695C159.883 133.121 159.77 133.5 159.543 133.832C159.32 134.164 159.018 134.424 158.635 134.611C159.08 134.803 159.432 135.082 159.689 135.449C159.951 135.816 160.082 136.232 160.082 136.697C160.082 137.436 159.832 138.023 159.332 138.461C158.836 138.898 158.182 139.117 157.369 139.117C156.549 139.117 155.891 138.898 155.395 138.461C154.902 138.02 154.656 137.432 154.656 136.697C154.656 136.236 154.781 135.82 155.031 135.449C155.285 135.078 155.635 134.797 156.08 134.605C155.701 134.418 155.402 134.158 155.184 133.826C154.965 133.494 154.855 133.117 154.855 132.695C154.855 131.977 155.086 131.406 155.547 130.984C156.008 130.562 156.615 130.352 157.369 130.352C158.119 130.352 158.725 130.562 159.186 130.984C159.65 131.406 159.883 131.977 159.883 132.695ZM158.998 136.674C158.998 136.197 158.846 135.809 158.541 135.508C158.24 135.207 157.846 135.057 157.357 135.057C156.869 135.057 156.477 135.205 156.18 135.502C155.887 135.799 155.74 136.189 155.74 136.674C155.74 137.158 155.883 137.539 156.168 137.816C156.457 138.094 156.857 138.232 157.369 138.232C157.877 138.232 158.275 138.094 158.564 137.816C158.854 137.535 158.998 137.154 158.998 136.674ZM157.369 131.242C156.943 131.242 156.598 131.375 156.332 131.641C156.07 131.902 155.939 132.26 155.939 132.713C155.939 133.146 156.068 133.498 156.326 133.768C156.588 134.033 156.936 134.166 157.369 134.166C157.803 134.166 158.148 134.033 158.406 133.768C158.668 133.498 158.799 133.146 158.799 132.713C158.799 132.279 158.664 131.926 158.395 131.652C158.125 131.379 157.783 131.242 157.369 131.242Z" fill="#5177FF"/>
<path d="M174.207 102.723L174.641 98.4688H179.012V99.4707H175.561L175.303 101.797C175.721 101.551 176.195 101.428 176.727 101.428C177.504 101.428 178.121 101.686 178.578 102.201C179.035 102.713 179.264 103.406 179.264 104.281C179.264 105.16 179.025 105.854 178.549 106.361C178.076 106.865 177.414 107.117 176.562 107.117C175.809 107.117 175.193 106.908 174.717 106.49C174.24 106.072 173.969 105.494 173.902 104.756H174.928C174.994 105.244 175.168 105.613 175.449 105.863C175.73 106.109 176.102 106.232 176.562 106.232C177.066 106.232 177.461 106.061 177.746 105.717C178.035 105.373 178.18 104.898 178.18 104.293C178.18 103.723 178.023 103.266 177.711 102.922C177.402 102.574 176.99 102.4 176.475 102.4C176.002 102.4 175.631 102.504 175.361 102.711L175.074 102.945L174.207 102.723Z" fill="#FF0303"/>
<path d="M62.8828 31.6953C62.8828 32.1211 62.7695 32.5 62.543 32.832C62.3203 33.1641 62.0176 33.4238 61.6348 33.6113C62.0801 33.8027 62.4316 34.082 62.6895 34.4492C62.9512 34.8164 63.082 35.2324 63.082 35.6973C63.082 36.4355 62.832 37.0234 62.332 37.4609C61.8359 37.8984 61.1816 38.1172 60.3691 38.1172C59.5488 38.1172 58.8906 37.8984 58.3945 37.4609C57.9023 37.0195 57.6562 36.4316 57.6562 35.6973C57.6562 35.2363 57.7812 34.8203 58.0312 34.4492C58.2852 34.0781 58.6348 33.7969 59.0801 33.6055C58.7012 33.418 58.4023 33.1582 58.1836 32.8262C57.9648 32.4941 57.8555 32.1172 57.8555 31.6953C57.8555 30.9766 58.0859 30.4062 58.5469 29.9844C59.0078 29.5625 59.6152 29.3516 60.3691 29.3516C61.1191 29.3516 61.7246 29.5625 62.1855 29.9844C62.6504 30.4062 62.8828 30.9766 62.8828 31.6953ZM61.998 35.6738C61.998 35.1973 61.8457 34.8086 61.541 34.5078C61.2402 34.207 60.8457 34.0566 60.3574 34.0566C59.8691 34.0566 59.4766 34.2051 59.1797 34.502C58.8867 34.7988 58.7402 35.1895 58.7402 35.6738C58.7402 36.1582 58.8828 36.5391 59.168 36.8164C59.457 37.0938 59.8574 37.2324 60.3691 37.2324C60.877 37.2324 61.2754 37.0938 61.5645 36.8164C61.8535 36.5352 61.998 36.1543 61.998 35.6738ZM60.3691 30.2422C59.9434 30.2422 59.5977 30.375 59.332 30.6406C59.0703 30.9023 58.9395 31.2598 58.9395 31.7129C58.9395 32.1465 59.0684 32.498 59.3262 32.7676C59.5879 33.0332 59.9355 33.166 60.3691 33.166C60.8027 33.166 61.1484 33.0332 61.4062 32.7676C61.668 32.498 61.7988 32.1465 61.7988 31.7129C61.7988 31.2793 61.6641 30.9258 61.3945 30.6523C61.125 30.3789 60.7832 30.2422 60.3691 30.2422Z" fill="#FF0303"/>
</svg>
