<svg width="200" height="200" viewBox="0 0 200 200" fill="none" xmlns="http://www.w3.org/2000/svg">
<path d="M55.223 163L95.3143 16.9999" stroke="#848484"/>
<path d="M75.5685 89.5686L60.411 146.137H19V104.726L75.5685 89.5686Z" fill="white" stroke="black" stroke-width="4" stroke-linejoin="round"/>
<path d="M75.5685 89.5685L19 104.726V74.411L75.5685 89.5685Z" fill="white" stroke="black" stroke-width="4" stroke-linejoin="round"/>
<path d="M75.5685 89.5685L19 74.411L34.1575 48.1575L75.5685 89.5685Z" fill="white" stroke="black" stroke-width="4" stroke-linejoin="round"/>
<path d="M75.5685 89.5685L34.1575 48.1575L60.411 33L75.5685 89.5685Z" fill="white" stroke="black" stroke-width="4" stroke-linejoin="round"/>
<path d="M75.5685 89.5685L60.411 33H90.726L75.5685 89.5685Z" fill="white" stroke="black" stroke-width="4" stroke-linejoin="round"/>
<path d="M75.5685 89.5685L90.726 33L116.98 48.1575L75.5685 89.5685Z" fill="white" stroke="black" stroke-width="4" stroke-linejoin="round"/>
<path d="M75.5685 89.5685L116.98 48.1575L152.843 68.863L132.137 104.726L75.5685 89.5685Z" fill="white" stroke="black" stroke-width="4" stroke-linejoin="round"/>
<path d="M75.5685 89.5686L132.137 104.726L116.98 130.98L75.5685 89.5686Z" fill="white" stroke="black" stroke-width="4" stroke-linejoin="round"/>
<path d="M75.5685 89.5686L116.98 130.98L96.2741 166.843L60.411 146.137L75.5685 89.5686Z" fill="white" stroke="black" stroke-width="4" stroke-linejoin="round"/>
<path d="M8.27148 96H7.18164V88.7754L4.99609 89.5781V88.5938L8.10156 87.4277H8.27148V96Z" fill="#5177FF"/>
<path d="M133.963 119.463V120.383H133.764C132.92 120.398 132.248 120.648 131.748 121.133C131.248 121.617 130.959 122.299 130.881 123.178C131.33 122.662 131.943 122.404 132.721 122.404C133.463 122.404 134.055 122.666 134.496 123.189C134.941 123.713 135.164 124.389 135.164 125.217C135.164 126.096 134.924 126.799 134.443 127.326C133.967 127.854 133.326 128.117 132.521 128.117C131.705 128.117 131.043 127.805 130.535 127.18C130.027 126.551 129.773 125.742 129.773 124.754V124.338C129.773 122.768 130.107 121.568 130.775 120.74C131.447 119.908 132.445 119.482 133.77 119.463H133.963ZM132.539 123.307C132.168 123.307 131.826 123.418 131.514 123.641C131.201 123.863 130.984 124.143 130.863 124.479V124.877C130.863 125.58 131.021 126.146 131.338 126.576C131.654 127.006 132.049 127.221 132.521 127.221C133.01 127.221 133.393 127.041 133.67 126.682C133.951 126.322 134.092 125.852 134.092 125.27C134.092 124.684 133.949 124.211 133.664 123.852C133.383 123.488 133.008 123.307 132.539 123.307Z" fill="#5177FF"/>
<path d="M140.271 54H139.182V46.7754L136.996 47.5781V46.5938L140.102 45.4277H140.271V54Z" fill="#FF0303"/>
<path d="M36.2852 156.207H37.0996C37.6113 156.199 38.0137 156.064 38.3066 155.803C38.5996 155.541 38.7461 155.188 38.7461 154.742C38.7461 153.742 38.248 153.242 37.252 153.242C36.7832 153.242 36.4082 153.377 36.127 153.646C35.8496 153.912 35.7109 154.266 35.7109 154.707H34.627C34.627 154.031 34.873 153.471 35.3652 153.025C35.8613 152.576 36.4902 152.352 37.252 152.352C38.0566 152.352 38.6875 152.564 39.1445 152.99C39.6016 153.416 39.8301 154.008 39.8301 154.766C39.8301 155.137 39.709 155.496 39.4668 155.844C39.2285 156.191 38.9023 156.451 38.4883 156.623C38.957 156.771 39.3184 157.018 39.5723 157.361C39.8301 157.705 39.959 158.125 39.959 158.621C39.959 159.387 39.709 159.994 39.209 160.443C38.709 160.893 38.0586 161.117 37.2578 161.117C36.457 161.117 35.8047 160.9 35.3008 160.467C34.8008 160.033 34.5508 159.461 34.5508 158.75H35.6406C35.6406 159.199 35.7871 159.559 36.0801 159.828C36.373 160.098 36.7656 160.232 37.2578 160.232C37.7812 160.232 38.1816 160.096 38.459 159.822C38.7363 159.549 38.875 159.156 38.875 158.645C38.875 158.148 38.7227 157.768 38.418 157.502C38.1133 157.236 37.6738 157.1 37.0996 157.092H36.2852V156.207Z" fill="#FF0303"/>
</svg>
