<svg width="200" height="200" viewBox="0 0 200 200" fill="none" xmlns="http://www.w3.org/2000/svg">
<path d="M68.223 154L108.314 8.00007" stroke="#848484"/>
<path d="M87.5685 81.5686L72.411 138.137H31V96.7261L87.5685 81.5686Z" fill="white" stroke="black" stroke-width="4" stroke-linejoin="round"/>
<path d="M87.5685 81.5686L31 96.7261V66.4111L87.5685 81.5686Z" fill="white" stroke="black" stroke-width="4" stroke-linejoin="round"/>
<path d="M87.5685 81.5685L31 66.411V25H72.411L87.5685 81.5685Z" fill="white" stroke="black" stroke-width="4" stroke-linejoin="round"/>
<path d="M87.5685 81.5685L72.411 25H102.726L87.5685 81.5685Z" fill="white" stroke="black" stroke-width="4" stroke-linejoin="round"/>
<path d="M87.5685 81.5685L102.726 25H144.137V66.411L87.5685 81.5685Z" fill="white" stroke="black" stroke-width="4" stroke-linejoin="round"/>
<path d="M87.5685 81.5686L144.137 66.4111V96.7261L87.5685 81.5686Z" fill="white" stroke="black" stroke-width="4" stroke-linejoin="round"/>
<path d="M87.5685 81.5686L144.137 96.7261L128.98 122.98L87.5685 81.5686Z" fill="white" stroke="black" stroke-width="4" stroke-linejoin="round"/>
<path d="M87.5685 81.5686L128.98 122.98L108.274 158.843L72.411 138.137L87.5685 81.5686Z" fill="white" stroke="black" stroke-width="4" stroke-linejoin="round"/>
<path d="M154.207 80.7227L154.641 76.4688H159.012V77.4707H155.561L155.303 79.7969C155.721 79.5508 156.195 79.4277 156.727 79.4277C157.504 79.4277 158.121 79.6855 158.578 80.2012C159.035 80.7129 159.264 81.4062 159.264 82.2812C159.264 83.1602 159.025 83.8535 158.549 84.3613C158.076 84.8652 157.414 85.1172 156.562 85.1172C155.809 85.1172 155.193 84.9082 154.717 84.4902C154.24 84.0723 153.969 83.4941 153.902 82.7559H154.928C154.994 83.2441 155.168 83.6133 155.449 83.8633C155.73 84.1094 156.102 84.2324 156.562 84.2324C157.066 84.2324 157.461 84.0605 157.746 83.7168C158.035 83.373 158.18 82.8984 158.18 82.293C158.18 81.7227 158.023 81.2656 157.711 80.9219C157.402 80.5742 156.99 80.4004 156.475 80.4004C156.002 80.4004 155.631 80.5039 155.361 80.7109L155.074 80.9453L154.207 80.7227Z" fill="#5177FF"/>
<path d="M90.8828 10.6953C90.8828 11.1211 90.7695 11.5 90.543 11.832C90.3203 12.1641 90.0176 12.4238 89.6348 12.6113C90.0801 12.8027 90.4316 13.082 90.6895 13.4492C90.9512 13.8164 91.082 14.2324 91.082 14.6973C91.082 15.4355 90.832 16.0234 90.332 16.4609C89.8359 16.8984 89.1816 17.1172 88.3691 17.1172C87.5488 17.1172 86.8906 16.8984 86.3945 16.4609C85.9023 16.0195 85.6562 15.4316 85.6562 14.6973C85.6562 14.2363 85.7812 13.8203 86.0312 13.4492C86.2852 13.0781 86.6348 12.7969 87.0801 12.6055C86.7012 12.418 86.4023 12.1582 86.1836 11.8262C85.9648 11.4941 85.8555 11.1172 85.8555 10.6953C85.8555 9.97656 86.0859 9.40625 86.5469 8.98438C87.0078 8.5625 87.6152 8.35156 88.3691 8.35156C89.1191 8.35156 89.7246 8.5625 90.1855 8.98438C90.6504 9.40625 90.8828 9.97656 90.8828 10.6953ZM89.998 14.6738C89.998 14.1973 89.8457 13.8086 89.541 13.5078C89.2402 13.207 88.8457 13.0566 88.3574 13.0566C87.8691 13.0566 87.4766 13.2051 87.1797 13.502C86.8867 13.7988 86.7402 14.1895 86.7402 14.6738C86.7402 15.1582 86.8828 15.5391 87.168 15.8164C87.457 16.0938 87.8574 16.2324 88.3691 16.2324C88.877 16.2324 89.2754 16.0938 89.5645 15.8164C89.8535 15.5352 89.998 15.1543 89.998 14.6738ZM88.3691 9.24219C87.9434 9.24219 87.5977 9.375 87.332 9.64062C87.0703 9.90234 86.9395 10.2598 86.9395 10.7129C86.9395 11.1465 87.0684 11.498 87.3262 11.7676C87.5879 12.0332 87.9355 12.166 88.3691 12.166C88.8027 12.166 89.1484 12.0332 89.4062 11.7676C89.668 11.498 89.7988 11.1465 89.7988 10.7129C89.7988 10.2793 89.6641 9.92578 89.3945 9.65234C89.125 9.37891 88.7832 9.24219 88.3691 9.24219Z" fill="#5177FF"/>
<path d="M127.207 148.723L127.641 144.469H132.012V145.471H128.561L128.303 147.797C128.721 147.551 129.195 147.428 129.727 147.428C130.504 147.428 131.121 147.686 131.578 148.201C132.035 148.713 132.264 149.406 132.264 150.281C132.264 151.16 132.025 151.854 131.549 152.361C131.076 152.865 130.414 153.117 129.562 153.117C128.809 153.117 128.193 152.908 127.717 152.49C127.24 152.072 126.969 151.494 126.902 150.756H127.928C127.994 151.244 128.168 151.613 128.449 151.863C128.73 152.109 129.102 152.232 129.562 152.232C130.066 152.232 130.461 152.061 130.746 151.717C131.035 151.373 131.18 150.898 131.18 150.293C131.18 149.723 131.023 149.266 130.711 148.922C130.402 148.574 129.99 148.4 129.475 148.4C129.002 148.4 128.631 148.504 128.361 148.711L128.074 148.945L127.207 148.723Z" fill="#FF0303"/>
<path d="M127.883 10.6953C127.883 11.1211 127.77 11.5 127.543 11.832C127.32 12.1641 127.018 12.4238 126.635 12.6113C127.08 12.8027 127.432 13.082 127.689 13.4492C127.951 13.8164 128.082 14.2324 128.082 14.6973C128.082 15.4355 127.832 16.0234 127.332 16.4609C126.836 16.8984 126.182 17.1172 125.369 17.1172C124.549 17.1172 123.891 16.8984 123.395 16.4609C122.902 16.0195 122.656 15.4316 122.656 14.6973C122.656 14.2363 122.781 13.8203 123.031 13.4492C123.285 13.0781 123.635 12.7969 124.08 12.6055C123.701 12.418 123.402 12.1582 123.184 11.8262C122.965 11.4941 122.855 11.1172 122.855 10.6953C122.855 9.97656 123.086 9.40625 123.547 8.98438C124.008 8.5625 124.615 8.35156 125.369 8.35156C126.119 8.35156 126.725 8.5625 127.186 8.98438C127.65 9.40625 127.883 9.97656 127.883 10.6953ZM126.998 14.6738C126.998 14.1973 126.846 13.8086 126.541 13.5078C126.24 13.207 125.846 13.0566 125.357 13.0566C124.869 13.0566 124.477 13.2051 124.18 13.502C123.887 13.7988 123.74 14.1895 123.74 14.6738C123.74 15.1582 123.883 15.5391 124.168 15.8164C124.457 16.0938 124.857 16.2324 125.369 16.2324C125.877 16.2324 126.275 16.0938 126.564 15.8164C126.854 15.5352 126.998 15.1543 126.998 14.6738ZM125.369 9.24219C124.943 9.24219 124.598 9.375 124.332 9.64062C124.07 9.90234 123.939 10.2598 123.939 10.7129C123.939 11.1465 124.068 11.498 124.326 11.7676C124.588 12.0332 124.936 12.166 125.369 12.166C125.803 12.166 126.148 12.0332 126.406 11.7676C126.668 11.498 126.799 11.1465 126.799 10.7129C126.799 10.2793 126.664 9.92578 126.395 9.65234C126.125 9.37891 125.783 9.24219 125.369 9.24219Z" fill="#FF0303"/>
</svg>
