<svg width="200" height="200" viewBox="0 0 200 200" fill="none" xmlns="http://www.w3.org/2000/svg">
<path d="M80.223 173L120.314 27.0001" stroke="#848484"/>
<path d="M100 100L84.8425 156.569H43.4315V115.157L100 100Z" fill="white" stroke="black" stroke-width="4" stroke-linejoin="round"/>
<path d="M100 99.9999L43.4315 115.157L22.7259 79.2944L58.589 58.5889L100 99.9999Z" fill="white" stroke="black" stroke-width="4" stroke-linejoin="round"/>
<path d="M100 99.9999L58.589 58.5888L79.2945 22.7258L115.158 43.4314L100 99.9999Z" fill="white" stroke="black" stroke-width="4" stroke-linejoin="round"/>
<path d="M100 99.9999L115.157 43.4314L141.411 58.5889L100 99.9999Z" fill="white" stroke="black" stroke-width="4" stroke-linejoin="round"/>
<path d="M100 99.9999L141.411 58.5889L156.569 84.8424L100 99.9999Z" fill="white" stroke="black" stroke-width="4" stroke-linejoin="round"/>
<path d="M100 99.9998L156.569 84.8423L177.274 120.705L141.411 141.411L100 99.9998Z" fill="white" stroke="black" stroke-width="4" stroke-linejoin="round"/>
<path d="M100 100L141.411 141.411L120.706 177.274L84.8425 156.569L100 100Z" fill="white" stroke="black" stroke-width="4" stroke-linejoin="round"/>
<path d="M134.217 36.0781L130.684 44H129.547L133.068 36.3594H128.451V35.4688H134.217V36.0781Z" fill="#5177FF"/>
<path d="M162.883 63.6953C162.883 64.1211 162.77 64.5 162.543 64.832C162.32 65.1641 162.018 65.4238 161.635 65.6113C162.08 65.8027 162.432 66.082 162.689 66.4492C162.951 66.8164 163.082 67.2324 163.082 67.6973C163.082 68.4355 162.832 69.0234 162.332 69.4609C161.836 69.8984 161.182 70.1172 160.369 70.1172C159.549 70.1172 158.891 69.8984 158.395 69.4609C157.902 69.0195 157.656 68.4316 157.656 67.6973C157.656 67.2363 157.781 66.8203 158.031 66.4492C158.285 66.0781 158.635 65.7969 159.08 65.6055C158.701 65.418 158.402 65.1582 158.184 64.8262C157.965 64.4941 157.855 64.1172 157.855 63.6953C157.855 62.9766 158.086 62.4062 158.547 61.9844C159.008 61.5625 159.615 61.3516 160.369 61.3516C161.119 61.3516 161.725 61.5625 162.186 61.9844C162.65 62.4062 162.883 62.9766 162.883 63.6953ZM161.998 67.6738C161.998 67.1973 161.846 66.8086 161.541 66.5078C161.24 66.207 160.846 66.0566 160.357 66.0566C159.869 66.0566 159.477 66.2051 159.18 66.502C158.887 66.7988 158.74 67.1895 158.74 67.6738C158.74 68.1582 158.883 68.5391 159.168 68.8164C159.457 69.0938 159.857 69.2324 160.369 69.2324C160.877 69.2324 161.275 69.0938 161.564 68.8164C161.854 68.5352 161.998 68.1543 161.998 67.6738ZM160.369 62.2422C159.943 62.2422 159.598 62.375 159.332 62.6406C159.07 62.9023 158.939 63.2598 158.939 63.7129C158.939 64.1465 159.068 64.498 159.326 64.7676C159.588 65.0332 159.936 65.166 160.369 65.166C160.803 65.166 161.148 65.0332 161.406 64.7676C161.668 64.498 161.799 64.1465 161.799 63.7129C161.799 63.2793 161.664 62.9258 161.395 62.6523C161.125 62.3789 160.783 62.2422 160.369 62.2422Z" fill="#5177FF"/>
<path d="M177.285 98.1348H178.469V99.0195H177.285V101H176.195V99.0195H172.311V98.3809L176.131 92.4688H177.285V98.1348ZM173.541 98.1348H176.195V93.9512L176.066 94.1855L173.541 98.1348Z" fill="#FF0303"/>
<path d="M63.8828 31.6953C63.8828 32.1211 63.7695 32.5 63.543 32.832C63.3203 33.1641 63.0176 33.4238 62.6348 33.6113C63.0801 33.8027 63.4316 34.082 63.6895 34.4492C63.9512 34.8164 64.082 35.2324 64.082 35.6973C64.082 36.4355 63.832 37.0234 63.332 37.4609C62.8359 37.8984 62.1816 38.1172 61.3691 38.1172C60.5488 38.1172 59.8906 37.8984 59.3945 37.4609C58.9023 37.0195 58.6562 36.4316 58.6562 35.6973C58.6562 35.2363 58.7812 34.8203 59.0312 34.4492C59.2852 34.0781 59.6348 33.7969 60.0801 33.6055C59.7012 33.418 59.4023 33.1582 59.1836 32.8262C58.9648 32.4941 58.8555 32.1172 58.8555 31.6953C58.8555 30.9766 59.0859 30.4062 59.5469 29.9844C60.0078 29.5625 60.6152 29.3516 61.3691 29.3516C62.1191 29.3516 62.7246 29.5625 63.1855 29.9844C63.6504 30.4062 63.8828 30.9766 63.8828 31.6953ZM62.998 35.6738C62.998 35.1973 62.8457 34.8086 62.541 34.5078C62.2402 34.207 61.8457 34.0566 61.3574 34.0566C60.8691 34.0566 60.4766 34.2051 60.1797 34.502C59.8867 34.7988 59.7402 35.1895 59.7402 35.6738C59.7402 36.1582 59.8828 36.5391 60.168 36.8164C60.457 37.0938 60.8574 37.2324 61.3691 37.2324C61.877 37.2324 62.2754 37.0938 62.5645 36.8164C62.8535 36.5352 62.998 36.1543 62.998 35.6738ZM61.3691 30.2422C60.9434 30.2422 60.5977 30.375 60.332 30.6406C60.0703 30.9023 59.9395 31.2598 59.9395 31.7129C59.9395 32.1465 60.0684 32.498 60.3262 32.7676C60.5879 33.0332 60.9355 33.166 61.3691 33.166C61.8027 33.166 62.1484 33.0332 62.4062 32.7676C62.668 32.498 62.7988 32.1465 62.7988 31.7129C62.7988 31.2793 62.6641 30.9258 62.3945 30.6523C62.125 30.3789 61.7832 30.2422 61.3691 30.2422Z" fill="#FF0303"/>
</svg>
