<svg width="200" height="200" viewBox="0 0 200 200" fill="none" xmlns="http://www.w3.org/2000/svg">
<path d="M80.223 173L120.314 27.0001" stroke="#848484"/>
<path d="M100 100L84.8425 156.569H43.4315V115.157L100 100Z" fill="white" stroke="black" stroke-width="4" stroke-linejoin="round"/>
<path d="M100 99.9999L43.4315 115.157L22.7259 79.2944L58.589 58.5889L100 99.9999Z" fill="white" stroke="black" stroke-width="4" stroke-linejoin="round"/>
<path d="M100 99.9999L58.589 58.5888L79.2945 22.7258L115.157 43.4314L100 99.9999Z" fill="white" stroke="black" stroke-width="4" stroke-linejoin="round"/>
<path d="M100 99.9999L115.157 43.4314L141.411 58.5889L100 99.9999Z" fill="white" stroke="black" stroke-width="4" stroke-linejoin="round"/>
<path d="M100 99.9999L141.411 58.5889L177.274 79.2944L156.569 115.157L100 99.9999Z" fill="white" stroke="black" stroke-width="4" stroke-linejoin="round"/>
<path d="M100 100L156.569 115.157V156.569H115.157L100 100Z" fill="white" stroke="black" stroke-width="4" stroke-linejoin="round"/>
<path d="M100 100L115.157 156.569H84.8425L100 100Z" fill="white" stroke="black" stroke-width="4" stroke-linejoin="round"/>
<path d="M99.2168 165.078L95.6836 173H94.5469L98.0684 165.359H93.4512V164.469H99.2168V165.078Z" fill="#5177FF"/>
<path d="M133.883 37.6953C133.883 38.1211 133.77 38.5 133.543 38.832C133.32 39.1641 133.018 39.4238 132.635 39.6113C133.08 39.8027 133.432 40.082 133.689 40.4492C133.951 40.8164 134.082 41.2324 134.082 41.6973C134.082 42.4355 133.832 43.0234 133.332 43.4609C132.836 43.8984 132.182 44.1172 131.369 44.1172C130.549 44.1172 129.891 43.8984 129.395 43.4609C128.902 43.0195 128.656 42.4316 128.656 41.6973C128.656 41.2363 128.781 40.8203 129.031 40.4492C129.285 40.0781 129.635 39.7969 130.08 39.6055C129.701 39.418 129.402 39.1582 129.184 38.8262C128.965 38.4941 128.855 38.1172 128.855 37.6953C128.855 36.9766 129.086 36.4062 129.547 35.9844C130.008 35.5625 130.615 35.3516 131.369 35.3516C132.119 35.3516 132.725 35.5625 133.186 35.9844C133.65 36.4062 133.883 36.9766 133.883 37.6953ZM132.998 41.6738C132.998 41.1973 132.846 40.8086 132.541 40.5078C132.24 40.207 131.846 40.0566 131.357 40.0566C130.869 40.0566 130.477 40.2051 130.18 40.502C129.887 40.7988 129.74 41.1895 129.74 41.6738C129.74 42.1582 129.883 42.5391 130.168 42.8164C130.457 43.0938 130.857 43.2324 131.369 43.2324C131.877 43.2324 132.275 43.0938 132.564 42.8164C132.854 42.5352 132.998 42.1543 132.998 41.6738ZM131.369 36.2422C130.943 36.2422 130.598 36.375 130.332 36.6406C130.07 36.9023 129.939 37.2598 129.939 37.7129C129.939 38.1465 130.068 38.498 130.326 38.7676C130.588 39.0332 130.936 39.166 131.369 39.166C131.803 39.166 132.148 39.0332 132.406 38.7676C132.668 38.498 132.799 38.1465 132.799 37.7129C132.799 37.2793 132.664 36.9258 132.395 36.6523C132.125 36.3789 131.783 36.2422 131.369 36.2422Z" fill="#5177FF"/>
<path d="M59.2852 169.135H60.4688V170.02H59.2852V172H58.1953V170.02H54.3105V169.381L58.1309 163.469H59.2852V169.135ZM55.541 169.135H58.1953V164.951L58.0664 165.186L55.541 169.135Z" fill="#FF0303"/>
<path d="M167.883 136.695C167.883 137.121 167.77 137.5 167.543 137.832C167.32 138.164 167.018 138.424 166.635 138.611C167.08 138.803 167.432 139.082 167.689 139.449C167.951 139.816 168.082 140.232 168.082 140.697C168.082 141.436 167.832 142.023 167.332 142.461C166.836 142.898 166.182 143.117 165.369 143.117C164.549 143.117 163.891 142.898 163.395 142.461C162.902 142.02 162.656 141.432 162.656 140.697C162.656 140.236 162.781 139.82 163.031 139.449C163.285 139.078 163.635 138.797 164.08 138.605C163.701 138.418 163.402 138.158 163.184 137.826C162.965 137.494 162.855 137.117 162.855 136.695C162.855 135.977 163.086 135.406 163.547 134.984C164.008 134.562 164.615 134.352 165.369 134.352C166.119 134.352 166.725 134.562 167.186 134.984C167.65 135.406 167.883 135.977 167.883 136.695ZM166.998 140.674C166.998 140.197 166.846 139.809 166.541 139.508C166.24 139.207 165.846 139.057 165.357 139.057C164.869 139.057 164.477 139.205 164.18 139.502C163.887 139.799 163.74 140.189 163.74 140.674C163.74 141.158 163.883 141.539 164.168 141.816C164.457 142.094 164.857 142.232 165.369 142.232C165.877 142.232 166.275 142.094 166.564 141.816C166.854 141.535 166.998 141.154 166.998 140.674ZM165.369 135.242C164.943 135.242 164.598 135.375 164.332 135.641C164.07 135.902 163.939 136.26 163.939 136.713C163.939 137.146 164.068 137.498 164.326 137.768C164.588 138.033 164.936 138.166 165.369 138.166C165.803 138.166 166.148 138.033 166.406 137.768C166.668 137.498 166.799 137.146 166.799 136.713C166.799 136.279 166.664 135.926 166.395 135.652C166.125 135.379 165.783 135.242 165.369 135.242Z" fill="#FF0303"/>
</svg>
