<svg width="200" height="200" viewBox="0 0 200 200" fill="none" xmlns="http://www.w3.org/2000/svg">
<path d="M80.223 173L120.314 27.0001" stroke="#848484"/>
<path d="M100 100L84.8425 156.569L58.589 141.411L100 100Z" fill="white" stroke="black" stroke-width="4" stroke-linejoin="round"/>
<path d="M100 100L58.589 141.411L43.4315 115.157L100 100Z" fill="white" stroke="black" stroke-width="4" stroke-linejoin="round"/>
<path d="M100 99.9999L43.4315 115.157L22.7259 79.2944L58.589 58.5889L100 99.9999Z" fill="white" stroke="black" stroke-width="4" stroke-linejoin="round"/>
<path d="M100 99.9999L58.589 58.5888L79.2945 22.7258L115.157 43.4314L100 99.9999Z" fill="white" stroke="black" stroke-width="4" stroke-linejoin="round"/>
<path d="M100 99.9999L115.157 43.4314H156.569V84.8424L100 99.9999Z" fill="white" stroke="black" stroke-width="4" stroke-linejoin="round"/>
<path d="M100 99.9998L156.569 84.8423V115.157L100 99.9998Z" fill="white" stroke="black" stroke-width="4" stroke-linejoin="round"/>
<path d="M100 100L156.569 115.157V156.569H115.157L100 100Z" fill="white" stroke="black" stroke-width="4" stroke-linejoin="round"/>
<path d="M100 100L115.157 156.569H84.8425L100 100Z" fill="white" stroke="black" stroke-width="4" stroke-linejoin="round"/>
<path d="M168.271 142H167.182V134.775L164.996 135.578V134.594L168.102 133.428H168.271V142Z" fill="#FF0303"/>
<path d="M136.285 31.1348H137.469V32.0195H136.285V34H135.195V32.0195H131.311V31.3809L135.131 25.4688H136.285V31.1348ZM132.541 31.1348H135.195V26.9512L135.066 27.1855L132.541 31.1348Z" fill="#FF0303"/>
<path d="M168.271 104H167.182V96.7754L164.996 97.5781V96.5938L168.102 95.4277H168.271V104Z" fill="#5177FF"/>
<path d="M41.2852 134.135H42.4688V135.02H41.2852V137H40.1953V135.02H36.3105V134.381L40.1309 128.469H41.2852V134.135ZM37.541 134.135H40.1953V129.951L40.0664 130.186L37.541 134.135Z" fill="#5177FF"/>
</svg>
