<svg width="200" height="200" viewBox="0 0 200 200" fill="none" xmlns="http://www.w3.org/2000/svg">
<path d="M80.223 173L120.314 27.0001" stroke="#848484"/>
<path d="M100 100L84.8425 156.569H43.4315V115.157L100 100Z" fill="white" stroke="black" stroke-width="4" stroke-linejoin="round"/>
<path d="M100 100L43.4315 115.158V84.8425L100 100Z" fill="white" stroke="black" stroke-width="4" stroke-linejoin="round"/>
<path d="M100 99.9999L43.4315 84.8424V43.4314H84.8425L100 99.9999Z" fill="white" stroke="black" stroke-width="4" stroke-linejoin="round"/>
<path d="M100 99.9999L84.8425 43.4314H115.157L100 99.9999Z" fill="white" stroke="black" stroke-width="4" stroke-linejoin="round"/>
<path d="M100 99.9999L115.157 43.4314L141.411 58.5889L100 99.9999Z" fill="white" stroke="black" stroke-width="4" stroke-linejoin="round"/>
<path d="M100 99.9999L141.411 58.5889L156.569 84.8424L100 99.9999Z" fill="white" stroke="black" stroke-width="4" stroke-linejoin="round"/>
<path d="M100 100L156.569 84.8425V115.158L100 100Z" fill="white" stroke="black" stroke-width="4" stroke-linejoin="round"/>
<path d="M100 100L156.569 115.157L141.411 141.411L100 100Z" fill="white" stroke="black" stroke-width="4" stroke-linejoin="round"/>
<path d="M100 100L141.411 141.411L120.706 177.274L84.8425 156.569L100 100Z" fill="white" stroke="black" stroke-width="4" stroke-linejoin="round"/>
<path d="M32.2715 106H31.1816V98.7754L28.9961 99.5781V98.5938L32.1016 97.4277H32.2715V106Z" fill="#5177FF"/>
<path d="M158.963 130.463V131.383H158.764C157.92 131.398 157.248 131.648 156.748 132.133C156.248 132.617 155.959 133.299 155.881 134.178C156.33 133.662 156.943 133.404 157.721 133.404C158.463 133.404 159.055 133.666 159.496 134.189C159.941 134.713 160.164 135.389 160.164 136.217C160.164 137.096 159.924 137.799 159.443 138.326C158.967 138.854 158.326 139.117 157.521 139.117C156.705 139.117 156.043 138.805 155.535 138.18C155.027 137.551 154.773 136.742 154.773 135.754V135.338C154.773 133.768 155.107 132.568 155.775 131.74C156.447 130.908 157.445 130.482 158.77 130.463H158.963ZM157.539 134.307C157.168 134.307 156.826 134.418 156.514 134.641C156.201 134.863 155.984 135.143 155.863 135.479V135.877C155.863 136.58 156.021 137.146 156.338 137.576C156.654 138.006 157.049 138.221 157.521 138.221C158.01 138.221 158.393 138.041 158.67 137.682C158.951 137.322 159.092 136.852 159.092 136.27C159.092 135.684 158.949 135.211 158.664 134.852C158.383 134.488 158.008 134.307 157.539 134.307Z" fill="#5177FF"/>
<path d="M33.2715 65H32.1816V57.7754L29.9961 58.5781V57.5938L33.1016 56.4277H33.2715V65Z" fill="#FF0303"/>
<path d="M59.2852 168.207H60.0996C60.6113 168.199 61.0137 168.064 61.3066 167.803C61.5996 167.541 61.7461 167.188 61.7461 166.742C61.7461 165.742 61.248 165.242 60.252 165.242C59.7832 165.242 59.4082 165.377 59.127 165.646C58.8496 165.912 58.7109 166.266 58.7109 166.707H57.627C57.627 166.031 57.873 165.471 58.3652 165.025C58.8613 164.576 59.4902 164.352 60.252 164.352C61.0566 164.352 61.6875 164.564 62.1445 164.99C62.6016 165.416 62.8301 166.008 62.8301 166.766C62.8301 167.137 62.709 167.496 62.4668 167.844C62.2285 168.191 61.9023 168.451 61.4883 168.623C61.957 168.771 62.3184 169.018 62.5723 169.361C62.8301 169.705 62.959 170.125 62.959 170.621C62.959 171.387 62.709 171.994 62.209 172.443C61.709 172.893 61.0586 173.117 60.2578 173.117C59.457 173.117 58.8047 172.9 58.3008 172.467C57.8008 172.033 57.5508 171.461 57.5508 170.75H58.6406C58.6406 171.199 58.7871 171.559 59.0801 171.828C59.373 172.098 59.7656 172.232 60.2578 172.232C60.7812 172.232 61.1816 172.096 61.459 171.822C61.7363 171.549 61.875 171.156 61.875 170.645C61.875 170.148 61.7227 169.768 61.418 169.502C61.1133 169.236 60.6738 169.1 60.0996 169.092H59.2852V168.207Z" fill="#FF0303"/>
</svg>
