<svg width="200" height="200" viewBox="0 0 200 200" fill="none" xmlns="http://www.w3.org/2000/svg">
<path d="M76.223 168L116.314 22.0001" stroke="#848484"/>
<path d="M98.0634 94.0635L113.221 37.4949L139.474 52.6524L98.0634 94.0635Z" fill="white" stroke="black" stroke-width="4" stroke-linejoin="round"/>
<path d="M98.0634 94.0635L139.474 52.6524L154.632 78.906L98.0634 94.0635Z" fill="white" stroke="black" stroke-width="4" stroke-linejoin="round"/>
<path d="M98.0635 94.0636L154.632 78.9061L175.338 114.769L139.475 135.475L98.0635 94.0636Z" fill="white" stroke="black" stroke-width="4" stroke-linejoin="round"/>
<path d="M98.0635 94.0636L139.475 135.475L118.769 171.338L82.906 150.632L98.0635 94.0636Z" fill="white" stroke="black" stroke-width="4" stroke-linejoin="round"/>
<path d="M98.0635 94.0635L82.906 150.632L41.4949 150.632L41.4949 109.221L98.0635 94.0635Z" fill="white" stroke="black" stroke-width="4" stroke-linejoin="round"/>
<path d="M98.0634 94.0637L41.4949 109.221L41.4949 78.9062L98.0634 94.0637Z" fill="white" stroke="black" stroke-width="4" stroke-linejoin="round"/>
<path d="M98.0634 94.0635L41.4949 78.906L41.4949 37.4949L82.9059 37.4949L98.0634 94.0635Z" fill="white" stroke="black" stroke-width="4" stroke-linejoin="round"/>
<path d="M98.0635 94.0635L82.906 37.4949L113.221 37.4949L98.0635 94.0635Z" fill="white" stroke="black" stroke-width="4" stroke-linejoin="round"/>
<path d="M27.207 55.7227L27.6406 51.4688H32.0117V52.4707H28.5605L28.3027 54.7969C28.7207 54.5508 29.1953 54.4277 29.7266 54.4277C30.5039 54.4277 31.1211 54.6855 31.5781 55.2012C32.0352 55.7129 32.2637 56.4062 32.2637 57.2812C32.2637 58.1602 32.0254 58.8535 31.5488 59.3613C31.0762 59.8652 30.4141 60.1172 29.5625 60.1172C28.8086 60.1172 28.1934 59.9082 27.7168 59.4902C27.2402 59.0723 26.9688 58.4941 26.9023 57.7559H27.9277C27.9941 58.2441 28.168 58.6133 28.4492 58.8633C28.7305 59.1094 29.1016 59.2324 29.5625 59.2324C30.0664 59.2324 30.4609 59.0605 30.7461 58.7168C31.0352 58.373 31.1797 57.8984 31.1797 57.293C31.1797 56.7227 31.0234 56.2656 30.7109 55.9219C30.4023 55.5742 29.9902 55.4004 29.4746 55.4004C29.002 55.4004 28.6309 55.5039 28.3613 55.7109L28.0742 55.9453L27.207 55.7227Z" fill="#FF0303"/>
<path d="M60.8828 161.695C60.8828 162.121 60.7695 162.5 60.543 162.832C60.3203 163.164 60.0176 163.424 59.6348 163.611C60.0801 163.803 60.4316 164.082 60.6895 164.449C60.9512 164.816 61.082 165.232 61.082 165.697C61.082 166.436 60.832 167.023 60.332 167.461C59.8359 167.898 59.1816 168.117 58.3691 168.117C57.5488 168.117 56.8906 167.898 56.3945 167.461C55.9023 167.02 55.6562 166.432 55.6562 165.697C55.6562 165.236 55.7812 164.82 56.0312 164.449C56.2852 164.078 56.6348 163.797 57.0801 163.605C56.7012 163.418 56.4023 163.158 56.1836 162.826C55.9648 162.494 55.8555 162.117 55.8555 161.695C55.8555 160.977 56.0859 160.406 56.5469 159.984C57.0078 159.562 57.6152 159.352 58.3691 159.352C59.1191 159.352 59.7246 159.562 60.1855 159.984C60.6504 160.406 60.8828 160.977 60.8828 161.695ZM59.998 165.674C59.998 165.197 59.8457 164.809 59.541 164.508C59.2402 164.207 58.8457 164.057 58.3574 164.057C57.8691 164.057 57.4766 164.205 57.1797 164.502C56.8867 164.799 56.7402 165.189 56.7402 165.674C56.7402 166.158 56.8828 166.539 57.168 166.816C57.457 167.094 57.8574 167.232 58.3691 167.232C58.877 167.232 59.2754 167.094 59.5645 166.816C59.8535 166.535 59.998 166.154 59.998 165.674ZM58.3691 160.242C57.9434 160.242 57.5977 160.375 57.332 160.641C57.0703 160.902 56.9395 161.26 56.9395 161.713C56.9395 162.146 57.0684 162.498 57.3262 162.768C57.5879 163.033 57.9355 163.166 58.3691 163.166C58.8027 163.166 59.1484 163.033 59.4062 162.768C59.668 162.498 59.7988 162.146 59.7988 161.713C59.7988 161.279 59.6641 160.926 59.3945 160.652C59.125 160.379 58.7832 160.242 58.3691 160.242Z" fill="#FF0303"/>
<path d="M27.207 91.7227L27.6406 87.4688H32.0117V88.4707H28.5605L28.3027 90.7969C28.7207 90.5508 29.1953 90.4277 29.7266 90.4277C30.5039 90.4277 31.1211 90.6855 31.5781 91.2012C32.0352 91.7129 32.2637 92.4062 32.2637 93.2812C32.2637 94.1602 32.0254 94.8535 31.5488 95.3613C31.0762 95.8652 30.4141 96.1172 29.5625 96.1172C28.8086 96.1172 28.1934 95.9082 27.7168 95.4902C27.2402 95.0723 26.9688 94.4941 26.9023 93.7559H27.9277C27.9941 94.2441 28.168 94.6133 28.4492 94.8633C28.7305 95.1094 29.1016 95.2324 29.5625 95.2324C30.0664 95.2324 30.4609 95.0605 30.7461 94.7168C31.0352 94.373 31.1797 93.8984 31.1797 93.293C31.1797 92.7227 31.0234 92.2656 30.7109 91.9219C30.4023 91.5742 29.9902 91.4004 29.4746 91.4004C29.002 91.4004 28.6309 91.5039 28.3613 91.7109L28.0742 91.9453L27.207 91.7227Z" fill="#5177FF"/>
<path d="M161.883 59.6953C161.883 60.1211 161.77 60.5 161.543 60.832C161.32 61.1641 161.018 61.4238 160.635 61.6113C161.08 61.8027 161.432 62.082 161.689 62.4492C161.951 62.8164 162.082 63.2324 162.082 63.6973C162.082 64.4355 161.832 65.0234 161.332 65.4609C160.836 65.8984 160.182 66.1172 159.369 66.1172C158.549 66.1172 157.891 65.8984 157.395 65.4609C156.902 65.0195 156.656 64.4316 156.656 63.6973C156.656 63.2363 156.781 62.8203 157.031 62.4492C157.285 62.0781 157.635 61.7969 158.08 61.6055C157.701 61.418 157.402 61.1582 157.184 60.8262C156.965 60.4941 156.855 60.1172 156.855 59.6953C156.855 58.9766 157.086 58.4062 157.547 57.9844C158.008 57.5625 158.615 57.3516 159.369 57.3516C160.119 57.3516 160.725 57.5625 161.186 57.9844C161.65 58.4062 161.883 58.9766 161.883 59.6953ZM160.998 63.6738C160.998 63.1973 160.846 62.8086 160.541 62.5078C160.24 62.207 159.846 62.0566 159.357 62.0566C158.869 62.0566 158.477 62.2051 158.18 62.502C157.887 62.7988 157.74 63.1895 157.74 63.6738C157.74 64.1582 157.883 64.5391 158.168 64.8164C158.457 65.0938 158.857 65.2324 159.369 65.2324C159.877 65.2324 160.275 65.0938 160.564 64.8164C160.854 64.5352 160.998 64.1543 160.998 63.6738ZM159.369 58.2422C158.943 58.2422 158.598 58.375 158.332 58.6406C158.07 58.9023 157.939 59.2598 157.939 59.7129C157.939 60.1465 158.068 60.498 158.326 60.7676C158.588 61.0332 158.936 61.166 159.369 61.166C159.803 61.166 160.148 61.0332 160.406 60.7676C160.668 60.498 160.799 60.1465 160.799 59.7129C160.799 59.2793 160.664 58.9258 160.395 58.6523C160.125 58.3789 159.783 58.2422 159.369 58.2422Z" fill="#5177FF"/>
</svg>
