<svg width="200" height="200" viewBox="0 0 200 200" fill="none" xmlns="http://www.w3.org/2000/svg">
<path d="M79.223 153L119.314 7.00007" stroke="#848484"/>
<path d="M100 79.2942L115.157 22.7256L141.411 37.8831L100 79.2942Z" fill="white" stroke="black" stroke-width="4" stroke-linejoin="round"/>
<path d="M100 79.2942L141.411 37.8831L156.569 64.1367L100 79.2942Z" fill="white" stroke="black" stroke-width="4" stroke-linejoin="round"/>
<path d="M100 79.2943L156.569 64.1368L177.274 99.9998L141.411 120.705L100 79.2943Z" fill="white" stroke="black" stroke-width="4" stroke-linejoin="round"/>
<path d="M100 79.2943L141.411 120.705L120.706 156.568L84.8425 135.863L100 79.2943Z" fill="white" stroke="black" stroke-width="4" stroke-linejoin="round"/>
<path d="M100 79.2943L84.8425 135.863L43.4315 135.863L43.4315 94.4517L100 79.2943Z" fill="white" stroke="black" stroke-width="4" stroke-linejoin="round"/>
<path d="M100 79.2942L43.4315 94.4517L22.7259 58.5886L58.589 37.8831L100 79.2942Z" fill="white" stroke="black" stroke-width="4" stroke-linejoin="round"/>
<path d="M100 79.2942L58.589 37.8831L84.8425 22.7256L100 79.2942Z" fill="white" stroke="black" stroke-width="4" stroke-linejoin="round"/>
<path d="M100 79.2942L84.8425 22.7256L115.157 22.7256L100 79.2942Z" fill="white" stroke="black" stroke-width="4" stroke-linejoin="round"/>
<path d="M173.207 72.7227L173.641 68.4688H178.012V69.4707H174.561L174.303 71.7969C174.721 71.5508 175.195 71.4277 175.727 71.4277C176.504 71.4277 177.121 71.6855 177.578 72.2012C178.035 72.7129 178.264 73.4062 178.264 74.2812C178.264 75.1602 178.025 75.8535 177.549 76.3613C177.076 76.8652 176.414 77.1172 175.562 77.1172C174.809 77.1172 174.193 76.9082 173.717 76.4902C173.24 76.0723 172.969 75.4941 172.902 74.7559H173.928C173.994 75.2441 174.168 75.6133 174.449 75.8633C174.73 76.1094 175.102 76.2324 175.562 76.2324C176.066 76.2324 176.461 76.0605 176.746 75.7168C177.035 75.373 177.18 74.8984 177.18 74.293C177.18 73.7227 177.023 73.2656 176.711 72.9219C176.402 72.5742 175.99 72.4004 175.475 72.4004C175.002 72.4004 174.631 72.5039 174.361 72.7109L174.074 72.9453L173.207 72.7227Z" fill="#FF0303"/>
<path d="M60.207 19.7227L60.6406 15.4688H65.0117V16.4707H61.5605L61.3027 18.7969C61.7207 18.5508 62.1953 18.4277 62.7266 18.4277C63.5039 18.4277 64.1211 18.6855 64.5781 19.2012C65.0352 19.7129 65.2637 20.4062 65.2637 21.2812C65.2637 22.1602 65.0254 22.8535 64.5488 23.3613C64.0762 23.8652 63.4141 24.1172 62.5625 24.1172C61.8086 24.1172 61.1934 23.9082 60.7168 23.4902C60.2402 23.0723 59.9688 22.4941 59.9023 21.7559H60.9277C60.9941 22.2441 61.168 22.6133 61.4492 22.8633C61.7305 23.1094 62.1016 23.2324 62.5625 23.2324C63.0664 23.2324 63.4609 23.0605 63.7461 22.7168C64.0352 22.373 64.1797 21.8984 64.1797 21.293C64.1797 20.7227 64.0234 20.2656 63.7109 19.9219C63.4023 19.5742 62.9902 19.4004 62.4746 19.4004C62.002 19.4004 61.6309 19.5039 61.3613 19.7109L61.0742 19.9453L60.207 19.7227Z" fill="#5177FF"/>
<path d="M162.883 45.6953C162.883 46.1211 162.77 46.5 162.543 46.832C162.32 47.1641 162.018 47.4238 161.635 47.6113C162.08 47.8027 162.432 48.082 162.689 48.4492C162.951 48.8164 163.082 49.2324 163.082 49.6973C163.082 50.4355 162.832 51.0234 162.332 51.4609C161.836 51.8984 161.182 52.1172 160.369 52.1172C159.549 52.1172 158.891 51.8984 158.395 51.4609C157.902 51.0195 157.656 50.4316 157.656 49.6973C157.656 49.2363 157.781 48.8203 158.031 48.4492C158.285 48.0781 158.635 47.7969 159.08 47.6055C158.701 47.418 158.402 47.1582 158.184 46.8262C157.965 46.4941 157.855 46.1172 157.855 45.6953C157.855 44.9766 158.086 44.4062 158.547 43.9844C159.008 43.5625 159.615 43.3516 160.369 43.3516C161.119 43.3516 161.725 43.5625 162.186 43.9844C162.65 44.4062 162.883 44.9766 162.883 45.6953ZM161.998 49.6738C161.998 49.1973 161.846 48.8086 161.541 48.5078C161.24 48.207 160.846 48.0566 160.357 48.0566C159.869 48.0566 159.477 48.2051 159.18 48.502C158.887 48.7988 158.74 49.1895 158.74 49.6738C158.74 50.1582 158.883 50.5391 159.168 50.8164C159.457 51.0938 159.857 51.2324 160.369 51.2324C160.877 51.2324 161.275 51.0938 161.564 50.8164C161.854 50.5352 161.998 50.1543 161.998 49.6738ZM160.369 44.2422C159.943 44.2422 159.598 44.375 159.332 44.6406C159.07 44.9023 158.939 45.2598 158.939 45.7129C158.939 46.1465 159.068 46.498 159.326 46.7676C159.588 47.0332 159.936 47.166 160.369 47.166C160.803 47.166 161.148 47.0332 161.406 46.7676C161.668 46.498 161.799 46.1465 161.799 45.7129C161.799 45.2793 161.664 44.9258 161.395 44.6523C161.125 44.3789 160.783 44.2422 160.369 44.2422Z" fill="#5177FF"/>
<path d="M21.8828 78.6953C21.8828 79.1211 21.7695 79.5 21.543 79.832C21.3203 80.1641 21.0176 80.4238 20.6348 80.6113C21.0801 80.8027 21.4316 81.082 21.6895 81.4492C21.9512 81.8164 22.082 82.2324 22.082 82.6973C22.082 83.4355 21.832 84.0234 21.332 84.4609C20.8359 84.8984 20.1816 85.1172 19.3691 85.1172C18.5488 85.1172 17.8906 84.8984 17.3945 84.4609C16.9023 84.0195 16.6562 83.4316 16.6562 82.6973C16.6562 82.2363 16.7812 81.8203 17.0312 81.4492C17.2852 81.0781 17.6348 80.7969 18.0801 80.6055C17.7012 80.418 17.4023 80.1582 17.1836 79.8262C16.9648 79.4941 16.8555 79.1172 16.8555 78.6953C16.8555 77.9766 17.0859 77.4062 17.5469 76.9844C18.0078 76.5625 18.6152 76.3516 19.3691 76.3516C20.1191 76.3516 20.7246 76.5625 21.1855 76.9844C21.6504 77.4062 21.8828 77.9766 21.8828 78.6953ZM20.998 82.6738C20.998 82.1973 20.8457 81.8086 20.541 81.5078C20.2402 81.207 19.8457 81.0566 19.3574 81.0566C18.8691 81.0566 18.4766 81.2051 18.1797 81.502C17.8867 81.7988 17.7402 82.1895 17.7402 82.6738C17.7402 83.1582 17.8828 83.5391 18.168 83.8164C18.457 84.0938 18.8574 84.2324 19.3691 84.2324C19.877 84.2324 20.2754 84.0938 20.5645 83.8164C20.8535 83.5352 20.998 83.1543 20.998 82.6738ZM19.3691 77.2422C18.9434 77.2422 18.5977 77.375 18.332 77.6406C18.0703 77.9023 17.9395 78.2598 17.9395 78.7129C17.9395 79.1465 18.0684 79.498 18.3262 79.7676C18.5879 80.0332 18.9355 80.166 19.3691 80.166C19.8027 80.166 20.1484 80.0332 20.4062 79.7676C20.668 79.498 20.7988 79.1465 20.7988 78.7129C20.7988 78.2793 20.6641 77.9258 20.3945 77.6523C20.125 77.3789 19.7832 77.2422 19.3691 77.2422Z" fill="#FF0303"/>
</svg>
