<svg width="200" height="200" viewBox="0 0 200 200" fill="none" xmlns="http://www.w3.org/2000/svg">
<path d="M80.223 173L120.314 27.0001" stroke="#848484"/>
<path d="M100.569 101.274L115.726 44.7054L141.98 59.8629L100.569 101.274Z" fill="white" stroke="black" stroke-width="4" stroke-linejoin="round"/>
<path d="M100.569 101.274L141.98 59.8629L157.137 86.1164L100.569 101.274Z" fill="white" stroke="black" stroke-width="4" stroke-linejoin="round"/>
<path d="M100.569 101.274L157.137 86.1165L177.843 121.98L141.98 142.685L100.569 101.274Z" fill="white" stroke="black" stroke-width="4" stroke-linejoin="round"/>
<path d="M100.569 101.274L141.98 142.685L121.274 178.548L85.411 157.843L100.569 101.274Z" fill="white" stroke="black" stroke-width="4" stroke-linejoin="round"/>
<path d="M100.569 101.274L85.411 157.843L44 157.843L44 116.431L100.569 101.274Z" fill="white" stroke="black" stroke-width="4" stroke-linejoin="round"/>
<path d="M100.569 101.274L44 116.431L44 86.1164L100.569 101.274Z" fill="white" stroke="black" stroke-width="4" stroke-linejoin="round"/>
<path d="M100.569 101.274L44 86.1164L59.1575 59.8629L100.569 101.274Z" fill="white" stroke="black" stroke-width="4" stroke-linejoin="round"/>
<path d="M100.569 101.274L59.1575 59.8629L79.863 23.9999L115.726 44.7054L100.569 101.274Z" fill="white" stroke="black" stroke-width="4" stroke-linejoin="round"/>
<path d="M29.207 101.723L29.6406 97.4688H34.0117V98.4707H30.5605L30.3027 100.797C30.7207 100.551 31.1953 100.428 31.7266 100.428C32.5039 100.428 33.1211 100.686 33.5781 101.201C34.0352 101.713 34.2637 102.406 34.2637 103.281C34.2637 104.16 34.0254 104.854 33.5488 105.361C33.0762 105.865 32.4141 106.117 31.5625 106.117C30.8086 106.117 30.1934 105.908 29.7168 105.49C29.2402 105.072 28.9688 104.494 28.9023 103.756H29.9277C29.9941 104.244 30.168 104.613 30.4492 104.863C30.7305 105.109 31.1016 105.232 31.5625 105.232C32.0664 105.232 32.4609 105.061 32.7461 104.717C33.0352 104.373 33.1797 103.898 33.1797 103.293C33.1797 102.723 33.0234 102.266 32.7109 101.922C32.4023 101.574 31.9902 101.4 31.4746 101.4C31.002 101.4 30.6309 101.504 30.3613 101.711L30.0742 101.945L29.207 101.723Z" fill="#5177FF"/>
<path d="M162.883 66.6953C162.883 67.1211 162.77 67.5 162.543 67.832C162.32 68.1641 162.018 68.4238 161.635 68.6113C162.08 68.8027 162.432 69.082 162.689 69.4492C162.951 69.8164 163.082 70.2324 163.082 70.6973C163.082 71.4355 162.832 72.0234 162.332 72.4609C161.836 72.8984 161.182 73.1172 160.369 73.1172C159.549 73.1172 158.891 72.8984 158.395 72.4609C157.902 72.0195 157.656 71.4316 157.656 70.6973C157.656 70.2363 157.781 69.8203 158.031 69.4492C158.285 69.0781 158.635 68.7969 159.08 68.6055C158.701 68.418 158.402 68.1582 158.184 67.8262C157.965 67.4941 157.855 67.1172 157.855 66.6953C157.855 65.9766 158.086 65.4062 158.547 64.9844C159.008 64.5625 159.615 64.3516 160.369 64.3516C161.119 64.3516 161.725 64.5625 162.186 64.9844C162.65 65.4062 162.883 65.9766 162.883 66.6953ZM161.998 70.6738C161.998 70.1973 161.846 69.8086 161.541 69.5078C161.24 69.207 160.846 69.0566 160.357 69.0566C159.869 69.0566 159.477 69.2051 159.18 69.502C158.887 69.7988 158.74 70.1895 158.74 70.6738C158.74 71.1582 158.883 71.5391 159.168 71.8164C159.457 72.0938 159.857 72.2324 160.369 72.2324C160.877 72.2324 161.275 72.0938 161.564 71.8164C161.854 71.5352 161.998 71.1543 161.998 70.6738ZM160.369 65.2422C159.943 65.2422 159.598 65.375 159.332 65.6406C159.07 65.9023 158.939 66.2598 158.939 66.7129C158.939 67.1465 159.068 67.498 159.326 67.7676C159.588 68.0332 159.936 68.166 160.369 68.166C160.803 68.166 161.148 68.0332 161.406 67.7676C161.668 67.498 161.799 67.1465 161.799 66.7129C161.799 66.2793 161.664 65.9258 161.395 65.6523C161.125 65.3789 160.783 65.2422 160.369 65.2422Z" fill="#5177FF"/>
<path d="M58.207 33.7227L58.6406 29.4688H63.0117V30.4707H59.5605L59.3027 32.7969C59.7207 32.5508 60.1953 32.4277 60.7266 32.4277C61.5039 32.4277 62.1211 32.6855 62.5781 33.2012C63.0352 33.7129 63.2637 34.4062 63.2637 35.2812C63.2637 36.1602 63.0254 36.8535 62.5488 37.3613C62.0762 37.8652 61.4141 38.1172 60.5625 38.1172C59.8086 38.1172 59.1934 37.9082 58.7168 37.4902C58.2402 37.0723 57.9688 36.4941 57.9023 35.7559H58.9277C58.9941 36.2441 59.168 36.6133 59.4492 36.8633C59.7305 37.1094 60.1016 37.2324 60.5625 37.2324C61.0664 37.2324 61.4609 37.0605 61.7461 36.7168C62.0352 36.373 62.1797 35.8984 62.1797 35.293C62.1797 34.7227 62.0234 34.2656 61.7109 33.9219C61.4023 33.5742 60.9902 33.4004 60.4746 33.4004C60.002 33.4004 59.6309 33.5039 59.3613 33.7109L59.0742 33.9453L58.207 33.7227Z" fill="#FF0303"/>
<path d="M62.8828 167.695C62.8828 168.121 62.7695 168.5 62.543 168.832C62.3203 169.164 62.0176 169.424 61.6348 169.611C62.0801 169.803 62.4316 170.082 62.6895 170.449C62.9512 170.816 63.082 171.232 63.082 171.697C63.082 172.436 62.832 173.023 62.332 173.461C61.8359 173.898 61.1816 174.117 60.3691 174.117C59.5488 174.117 58.8906 173.898 58.3945 173.461C57.9023 173.02 57.6562 172.432 57.6562 171.697C57.6562 171.236 57.7812 170.82 58.0312 170.449C58.2852 170.078 58.6348 169.797 59.0801 169.605C58.7012 169.418 58.4023 169.158 58.1836 168.826C57.9648 168.494 57.8555 168.117 57.8555 167.695C57.8555 166.977 58.0859 166.406 58.5469 165.984C59.0078 165.562 59.6152 165.352 60.3691 165.352C61.1191 165.352 61.7246 165.562 62.1855 165.984C62.6504 166.406 62.8828 166.977 62.8828 167.695ZM61.998 171.674C61.998 171.197 61.8457 170.809 61.541 170.508C61.2402 170.207 60.8457 170.057 60.3574 170.057C59.8691 170.057 59.4766 170.205 59.1797 170.502C58.8867 170.799 58.7402 171.189 58.7402 171.674C58.7402 172.158 58.8828 172.539 59.168 172.816C59.457 173.094 59.8574 173.232 60.3691 173.232C60.877 173.232 61.2754 173.094 61.5645 172.816C61.8535 172.535 61.998 172.154 61.998 171.674ZM60.3691 166.242C59.9434 166.242 59.5977 166.375 59.332 166.641C59.0703 166.902 58.9395 167.26 58.9395 167.713C58.9395 168.146 59.0684 168.498 59.3262 168.768C59.5879 169.033 59.9355 169.166 60.3691 169.166C60.8027 169.166 61.1484 169.033 61.4062 168.768C61.668 168.498 61.7988 168.146 61.7988 167.713C61.7988 167.279 61.6641 166.926 61.3945 166.652C61.125 166.379 60.7832 166.242 60.3691 166.242Z" fill="#FF0303"/>
</svg>
