<svg width="200" height="200" viewBox="0 0 200 200" fill="none" xmlns="http://www.w3.org/2000/svg">
<path d="M74.223 167L114.314 21.0001" stroke="#848484"/>
<path d="M93.5 94.5L77.825 153H35V110.175L93.5 94.5Z" fill="white" stroke="black" stroke-width="4" stroke-linejoin="round"/>
<path d="M93.5 94.5L35 110.175V78.825L93.5 94.5Z" fill="white" stroke="black" stroke-width="4" stroke-linejoin="round"/>
<path d="M93.5 94.5L35 78.825V36H77.825L93.5 94.5Z" fill="white" stroke="black" stroke-width="4" stroke-linejoin="round"/>
<path d="M93.5 94.5L77.825 36H109.175L93.5 94.5Z" fill="white" stroke="black" stroke-width="4" stroke-linejoin="round"/>
<path d="M93.5 94.5L109.175 36H152V78.825L93.5 94.5Z" fill="white" stroke="black" stroke-width="4" stroke-linejoin="round"/>
<path d="M93.5 94.5L152 78.825V110.175L93.5 94.5Z" fill="white" stroke="black" stroke-width="4" stroke-linejoin="round"/>
<path d="M93.5 94.5L152 110.175V153H109.175L93.5 94.5Z" fill="white" stroke="black" stroke-width="4" stroke-linejoin="round"/>
<path d="M93.5 94.5L109.175 153H77.825L93.5 94.5Z" fill="white" stroke="black" stroke-width="4" stroke-linejoin="round"/>
<path d="M133.207 24.7227L133.641 20.4688H138.012V21.4707H134.561L134.303 23.7969C134.721 23.5508 135.195 23.4277 135.727 23.4277C136.504 23.4277 137.121 23.6855 137.578 24.2012C138.035 24.7129 138.264 25.4062 138.264 26.2812C138.264 27.1602 138.025 27.8535 137.549 28.3613C137.076 28.8652 136.414 29.1172 135.562 29.1172C134.809 29.1172 134.193 28.9082 133.717 28.4902C133.24 28.0723 132.969 27.4941 132.902 26.7559H133.928C133.994 27.2441 134.168 27.6133 134.449 27.8633C134.73 28.1094 135.102 28.2324 135.562 28.2324C136.066 28.2324 136.461 28.0605 136.746 27.7168C137.035 27.373 137.18 26.8984 137.18 26.293C137.18 25.7227 137.023 25.2656 136.711 24.9219C136.402 24.5742 135.99 24.4004 135.475 24.4004C135.002 24.4004 134.631 24.5039 134.361 24.7109L134.074 24.9453L133.207 24.7227Z" fill="#FF0303"/>
<path d="M25.8828 50.6953C25.8828 51.1211 25.7695 51.5 25.543 51.832C25.3203 52.1641 25.0176 52.4238 24.6348 52.6113C25.0801 52.8027 25.4316 53.082 25.6895 53.4492C25.9512 53.8164 26.082 54.2324 26.082 54.6973C26.082 55.4355 25.832 56.0234 25.332 56.4609C24.8359 56.8984 24.1816 57.1172 23.3691 57.1172C22.5488 57.1172 21.8906 56.8984 21.3945 56.4609C20.9023 56.0195 20.6562 55.4316 20.6562 54.6973C20.6562 54.2363 20.7812 53.8203 21.0312 53.4492C21.2852 53.0781 21.6348 52.7969 22.0801 52.6055C21.7012 52.418 21.4023 52.1582 21.1836 51.8262C20.9648 51.4941 20.8555 51.1172 20.8555 50.6953C20.8555 49.9766 21.0859 49.4062 21.5469 48.9844C22.0078 48.5625 22.6152 48.3516 23.3691 48.3516C24.1191 48.3516 24.7246 48.5625 25.1855 48.9844C25.6504 49.4062 25.8828 49.9766 25.8828 50.6953ZM24.998 54.6738C24.998 54.1973 24.8457 53.8086 24.541 53.5078C24.2402 53.207 23.8457 53.0566 23.3574 53.0566C22.8691 53.0566 22.4766 53.2051 22.1797 53.502C21.8867 53.7988 21.7402 54.1895 21.7402 54.6738C21.7402 55.1582 21.8828 55.5391 22.168 55.8164C22.457 56.0938 22.8574 56.2324 23.3691 56.2324C23.877 56.2324 24.2754 56.0938 24.5645 55.8164C24.8535 55.5352 24.998 55.1543 24.998 54.6738ZM23.3691 49.2422C22.9434 49.2422 22.5977 49.375 22.332 49.6406C22.0703 49.9023 21.9395 50.2598 21.9395 50.7129C21.9395 51.1465 22.0684 51.498 22.3262 51.7676C22.5879 52.0332 22.9355 52.166 23.3691 52.166C23.8027 52.166 24.1484 52.0332 24.4062 51.7676C24.668 51.498 24.7988 51.1465 24.7988 50.7129C24.7988 50.2793 24.6641 49.9258 24.3945 49.6523C24.125 49.3789 23.7832 49.2422 23.3691 49.2422Z" fill="#FF0303"/>
<path d="M91.207 24.7227L91.6406 20.4688H96.0117V21.4707H92.5605L92.3027 23.7969C92.7207 23.5508 93.1953 23.4277 93.7266 23.4277C94.5039 23.4277 95.1211 23.6855 95.5781 24.2012C96.0352 24.7129 96.2637 25.4062 96.2637 26.2812C96.2637 27.1602 96.0254 27.8535 95.5488 28.3613C95.0762 28.8652 94.4141 29.1172 93.5625 29.1172C92.8086 29.1172 92.1934 28.9082 91.7168 28.4902C91.2402 28.0723 90.9688 27.4941 90.9023 26.7559H91.9277C91.9941 27.2441 92.168 27.6133 92.4492 27.8633C92.7305 28.1094 93.1016 28.2324 93.5625 28.2324C94.0664 28.2324 94.4609 28.0605 94.7461 27.7168C95.0352 27.373 95.1797 26.8984 95.1797 26.293C95.1797 25.7227 95.0234 25.2656 94.7109 24.9219C94.4023 24.5742 93.9902 24.4004 93.4746 24.4004C93.002 24.4004 92.6309 24.5039 92.3613 24.7109L92.0742 24.9453L91.207 24.7227Z" fill="#5177FF"/>
<path d="M25.8828 93.6953C25.8828 94.1211 25.7695 94.5 25.543 94.832C25.3203 95.1641 25.0176 95.4238 24.6348 95.6113C25.0801 95.8027 25.4316 96.082 25.6895 96.4492C25.9512 96.8164 26.082 97.2324 26.082 97.6973C26.082 98.4355 25.832 99.0234 25.332 99.4609C24.8359 99.8984 24.1816 100.117 23.3691 100.117C22.5488 100.117 21.8906 99.8984 21.3945 99.4609C20.9023 99.0195 20.6562 98.4316 20.6562 97.6973C20.6562 97.2363 20.7812 96.8203 21.0312 96.4492C21.2852 96.0781 21.6348 95.7969 22.0801 95.6055C21.7012 95.418 21.4023 95.1582 21.1836 94.8262C20.9648 94.4941 20.8555 94.1172 20.8555 93.6953C20.8555 92.9766 21.0859 92.4062 21.5469 91.9844C22.0078 91.5625 22.6152 91.3516 23.3691 91.3516C24.1191 91.3516 24.7246 91.5625 25.1855 91.9844C25.6504 92.4062 25.8828 92.9766 25.8828 93.6953ZM24.998 97.6738C24.998 97.1973 24.8457 96.8086 24.541 96.5078C24.2402 96.207 23.8457 96.0566 23.3574 96.0566C22.8691 96.0566 22.4766 96.2051 22.1797 96.502C21.8867 96.7988 21.7402 97.1895 21.7402 97.6738C21.7402 98.1582 21.8828 98.5391 22.168 98.8164C22.457 99.0938 22.8574 99.2324 23.3691 99.2324C23.877 99.2324 24.2754 99.0938 24.5645 98.8164C24.8535 98.5352 24.998 98.1543 24.998 97.6738ZM23.3691 92.2422C22.9434 92.2422 22.5977 92.375 22.332 92.6406C22.0703 92.9023 21.9395 93.2598 21.9395 93.7129C21.9395 94.1465 22.0684 94.498 22.3262 94.7676C22.5879 95.0332 22.9355 95.166 23.3691 95.166C23.8027 95.166 24.1484 95.0332 24.4062 94.7676C24.668 94.498 24.7988 94.1465 24.7988 93.7129C24.7988 93.2793 24.6641 92.9258 24.3945 92.6523C24.125 92.3789 23.7832 92.2422 23.3691 92.2422Z" fill="#5177FF"/>
</svg>
