<svg width="200" height="200" viewBox="0 0 200 200" fill="none" xmlns="http://www.w3.org/2000/svg">
<path d="M80.223 173L120.314 27.0001" stroke="#848484"/>
<path d="M100 100L84.8425 156.569H43.4315V115.157L100 100Z" fill="white" stroke="black" stroke-width="4" stroke-linejoin="round"/>
<path d="M100 99.9999L43.4315 115.157L22.7259 79.2944L58.589 58.5889L100 99.9999Z" fill="white" stroke="black" stroke-width="4" stroke-linejoin="round"/>
<path d="M100 99.9999L58.589 58.5888L79.2945 22.7258L115.157 43.4314L100 99.9999Z" fill="white" stroke="black" stroke-width="4" stroke-linejoin="round"/>
<path d="M100 99.9999L115.157 43.4314H156.569V84.8424L100 99.9999Z" fill="white" stroke="black" stroke-width="4" stroke-linejoin="round"/>
<path d="M100 99.9998L156.569 84.8423L177.274 120.705L141.411 141.411L100 99.9998Z" fill="white" stroke="black" stroke-width="4" stroke-linejoin="round"/>
<path d="M100 100L141.411 141.411L120.706 177.274L84.8425 156.569L100 100Z" fill="white" stroke="black" stroke-width="4" stroke-linejoin="round"/>
<path d="M136.285 33.207H137.1C137.611 33.1992 138.014 33.0645 138.307 32.8027C138.6 32.541 138.746 32.1875 138.746 31.7422C138.746 30.7422 138.248 30.2422 137.252 30.2422C136.783 30.2422 136.408 30.377 136.127 30.6465C135.85 30.9121 135.711 31.2656 135.711 31.707H134.627C134.627 31.0312 134.873 30.4707 135.365 30.0254C135.861 29.5762 136.49 29.3516 137.252 29.3516C138.057 29.3516 138.688 29.5645 139.145 29.9902C139.602 30.416 139.83 31.0078 139.83 31.7656C139.83 32.1367 139.709 32.4961 139.467 32.8438C139.229 33.1914 138.902 33.4512 138.488 33.623C138.957 33.7715 139.318 34.0176 139.572 34.3613C139.83 34.7051 139.959 35.125 139.959 35.6211C139.959 36.3867 139.709 36.9941 139.209 37.4434C138.709 37.8926 138.059 38.1172 137.258 38.1172C136.457 38.1172 135.805 37.9004 135.301 37.4668C134.801 37.0332 134.551 36.4609 134.551 35.75H135.641C135.641 36.1992 135.787 36.5586 136.08 36.8281C136.373 37.0977 136.766 37.2324 137.258 37.2324C137.781 37.2324 138.182 37.0957 138.459 36.8223C138.736 36.5488 138.875 36.1562 138.875 35.6445C138.875 35.1484 138.723 34.7676 138.418 34.502C138.113 34.2363 137.674 34.0996 137.1 34.0918H136.285V33.207Z" fill="#FF0303"/>
<path d="M64.8828 30.6953C64.8828 31.1211 64.7695 31.5 64.543 31.832C64.3203 32.1641 64.0176 32.4238 63.6348 32.6113C64.0801 32.8027 64.4316 33.082 64.6895 33.4492C64.9512 33.8164 65.082 34.2324 65.082 34.6973C65.082 35.4355 64.832 36.0234 64.332 36.4609C63.8359 36.8984 63.1816 37.1172 62.3691 37.1172C61.5488 37.1172 60.8906 36.8984 60.3945 36.4609C59.9023 36.0195 59.6562 35.4316 59.6562 34.6973C59.6562 34.2363 59.7812 33.8203 60.0312 33.4492C60.2852 33.0781 60.6348 32.7969 61.0801 32.6055C60.7012 32.418 60.4023 32.1582 60.1836 31.8262C59.9648 31.4941 59.8555 31.1172 59.8555 30.6953C59.8555 29.9766 60.0859 29.4062 60.5469 28.9844C61.0078 28.5625 61.6152 28.3516 62.3691 28.3516C63.1191 28.3516 63.7246 28.5625 64.1855 28.9844C64.6504 29.4062 64.8828 29.9766 64.8828 30.6953ZM63.998 34.6738C63.998 34.1973 63.8457 33.8086 63.541 33.5078C63.2402 33.207 62.8457 33.0566 62.3574 33.0566C61.8691 33.0566 61.4766 33.2051 61.1797 33.502C60.8867 33.7988 60.7402 34.1895 60.7402 34.6738C60.7402 35.1582 60.8828 35.5391 61.168 35.8164C61.457 36.0938 61.8574 36.2324 62.3691 36.2324C62.877 36.2324 63.2754 36.0938 63.5645 35.8164C63.8535 35.5352 63.998 35.1543 63.998 34.6738ZM62.3691 29.2422C61.9434 29.2422 61.5977 29.375 61.332 29.6406C61.0703 29.9023 60.9395 30.2598 60.9395 30.7129C60.9395 31.1465 61.0684 31.498 61.3262 31.7676C61.5879 32.0332 61.9355 32.166 62.3691 32.166C62.8027 32.166 63.1484 32.0332 63.4062 31.7676C63.668 31.498 63.7988 31.1465 63.7988 30.7129C63.7988 30.2793 63.6641 29.9258 63.3945 29.6523C63.125 29.3789 62.7832 29.2422 62.3691 29.2422Z" fill="#FF0303"/>
</svg>
