<svg width="200" height="200" viewBox="0 0 200 200" fill="none" xmlns="http://www.w3.org/2000/svg">
<path d="M79 173L119.091 27" stroke="#848484"/>
<path d="M100 100L84.8425 156.569L58.589 141.411L100 100Z" fill="white" stroke="black" stroke-width="4" stroke-linejoin="round"/>
<path d="M100 100L58.589 141.411L43.4315 115.157L100 100Z" fill="white" stroke="black" stroke-width="4" stroke-linejoin="round"/>
<path d="M100 100L43.4315 115.158V84.8425L100 100Z" fill="white" stroke="black" stroke-width="4" stroke-linejoin="round"/>
<path d="M100 100L43.4315 84.8425V43.4315H84.8425L100 100Z" fill="white" stroke="black" stroke-width="4" stroke-linejoin="round"/>
<path d="M100 100L84.8425 43.4315H115.157L100 100Z" fill="white" stroke="black" stroke-width="4" stroke-linejoin="round"/>
<path d="M100 100L115.157 43.4315L141.411 58.589L100 100Z" fill="white" stroke="black" stroke-width="4" stroke-linejoin="round"/>
<path d="M100 100L141.411 58.5889L177.274 79.2945L156.569 115.157L100 100Z" fill="white" stroke="black" stroke-width="4" stroke-linejoin="round"/>
<path d="M100 100L156.569 115.157L141.411 141.411L100 100Z" fill="white" stroke="black" stroke-width="4" stroke-linejoin="round"/>
<path d="M100 100L141.411 141.411L120.706 177.274L84.8425 156.569L100 100Z" fill="white" stroke="black" stroke-width="4" stroke-linejoin="round"/>
<path d="M158.271 139H157.182V131.775L154.996 132.578V131.594L158.102 130.428H158.271V139Z" fill="#5177FF"/>
<path d="M132.963 35.4629V36.3828H132.764C131.92 36.3984 131.248 36.6484 130.748 37.1328C130.248 37.6172 129.959 38.2988 129.881 39.1777C130.33 38.6621 130.943 38.4043 131.721 38.4043C132.463 38.4043 133.055 38.666 133.496 39.1895C133.941 39.7129 134.164 40.3887 134.164 41.2168C134.164 42.0957 133.924 42.7988 133.443 43.3262C132.967 43.8535 132.326 44.1172 131.521 44.1172C130.705 44.1172 130.043 43.8047 129.535 43.1797C129.027 42.5508 128.773 41.7422 128.773 40.7539V40.3379C128.773 38.7676 129.107 37.5684 129.775 36.7402C130.447 35.9082 131.445 35.4824 132.77 35.4629H132.963ZM131.539 39.3066C131.168 39.3066 130.826 39.418 130.514 39.6406C130.201 39.8633 129.984 40.1426 129.863 40.4785V40.877C129.863 41.5801 130.021 42.1465 130.338 42.5762C130.654 43.0059 131.049 43.2207 131.521 43.2207C132.01 43.2207 132.393 43.041 132.67 42.6816C132.951 42.3223 133.092 41.8516 133.092 41.2695C133.092 40.6836 132.949 40.2109 132.664 39.8516C132.383 39.4883 132.008 39.3066 131.539 39.3066Z" fill="#5177FF"/>
<path d="M138.271 173H137.182V165.775L134.996 166.578V165.594L138.102 164.428H138.271V173Z" fill="#FF0303"/>
<path d="M164.285 60.207H165.1C165.611 60.1992 166.014 60.0645 166.307 59.8027C166.6 59.541 166.746 59.1875 166.746 58.7422C166.746 57.7422 166.248 57.2422 165.252 57.2422C164.783 57.2422 164.408 57.377 164.127 57.6465C163.85 57.9121 163.711 58.2656 163.711 58.707H162.627C162.627 58.0312 162.873 57.4707 163.365 57.0254C163.861 56.5762 164.49 56.3516 165.252 56.3516C166.057 56.3516 166.688 56.5645 167.145 56.9902C167.602 57.416 167.83 58.0078 167.83 58.7656C167.83 59.1367 167.709 59.4961 167.467 59.8438C167.229 60.1914 166.902 60.4512 166.488 60.623C166.957 60.7715 167.318 61.0176 167.572 61.3613C167.83 61.7051 167.959 62.125 167.959 62.6211C167.959 63.3867 167.709 63.9941 167.209 64.4434C166.709 64.8926 166.059 65.1172 165.258 65.1172C164.457 65.1172 163.805 64.9004 163.301 64.4668C162.801 64.0332 162.551 63.4609 162.551 62.75H163.641C163.641 63.1992 163.787 63.5586 164.08 63.8281C164.373 64.0977 164.766 64.2324 165.258 64.2324C165.781 64.2324 166.182 64.0957 166.459 63.8223C166.736 63.5488 166.875 63.1562 166.875 62.6445C166.875 62.1484 166.723 61.7676 166.418 61.502C166.113 61.2363 165.674 61.0996 165.1 61.0918H164.285V60.207Z" fill="#FF0303"/>
</svg>
