<svg width="200" height="200" viewBox="0 0 200 200" fill="none" xmlns="http://www.w3.org/2000/svg">
<path d="M80.223 173L120.314 27" stroke="#848484"/>
<path d="M100 100L84.8425 156.569L58.589 141.411L100 100Z" fill="white" stroke="black" stroke-width="4" stroke-linejoin="round"/>
<path d="M100 100L58.589 141.411L43.4315 115.157L100 100Z" fill="white" stroke="black" stroke-width="4" stroke-linejoin="round"/>
<path d="M100 100L43.4315 115.157L22.7259 79.2945L58.589 58.5889L100 100Z" fill="white" stroke="black" stroke-width="4" stroke-linejoin="round"/>
<path d="M100 100L58.589 58.589L84.8425 43.4315L100 100Z" fill="white" stroke="black" stroke-width="4" stroke-linejoin="round"/>
<path d="M100 100L84.8425 43.4315H115.158L100 100Z" fill="white" stroke="black" stroke-width="4" stroke-linejoin="round"/>
<path d="M100 100L115.157 43.4315L141.411 58.589L100 100Z" fill="white" stroke="black" stroke-width="4" stroke-linejoin="round"/>
<path d="M100 100L141.411 58.5889L156.569 84.8425L100 100Z" fill="white" stroke="black" stroke-width="4" stroke-linejoin="round"/>
<path d="M100 100L156.569 84.8425L177.274 120.706L141.411 141.411L100 100Z" fill="white" stroke="black" stroke-width="4" stroke-linejoin="round"/>
<path d="M100 100L141.411 141.411L115.157 156.569L100 100Z" fill="white" stroke="black" stroke-width="4" stroke-linejoin="round"/>
<path d="M100 100L115.158 156.569H84.8425L100 100Z" fill="white" stroke="black" stroke-width="4" stroke-linejoin="round"/>
<path d="M135.271 163H134.182V155.775L131.996 156.578V155.594L135.102 154.428H135.271V163Z" fill="#5177FF"/>
<path d="M162.883 63.6953C162.883 64.1211 162.77 64.5 162.543 64.832C162.32 65.1641 162.018 65.4238 161.635 65.6113C162.08 65.8027 162.432 66.082 162.689 66.4492C162.951 66.8164 163.082 67.2324 163.082 67.6973C163.082 68.4355 162.832 69.0234 162.332 69.4609C161.836 69.8984 161.182 70.1172 160.369 70.1172C159.549 70.1172 158.891 69.8984 158.395 69.4609C157.902 69.0195 157.656 68.4316 157.656 67.6973C157.656 67.2363 157.781 66.8203 158.031 66.4492C158.285 66.0781 158.635 65.7969 159.08 65.6055C158.701 65.418 158.402 65.1582 158.184 64.8262C157.965 64.4941 157.855 64.1172 157.855 63.6953C157.855 62.9766 158.086 62.4062 158.547 61.9844C159.008 61.5625 159.615 61.3516 160.369 61.3516C161.119 61.3516 161.725 61.5625 162.186 61.9844C162.65 62.4062 162.883 62.9766 162.883 63.6953ZM161.998 67.6738C161.998 67.1973 161.846 66.8086 161.541 66.5078C161.24 66.207 160.846 66.0566 160.357 66.0566C159.869 66.0566 159.477 66.2051 159.18 66.502C158.887 66.7988 158.74 67.1895 158.74 67.6738C158.74 68.1582 158.883 68.5391 159.168 68.8164C159.457 69.0938 159.857 69.2324 160.369 69.2324C160.877 69.2324 161.275 69.0938 161.564 68.8164C161.854 68.5352 161.998 68.1543 161.998 67.6738ZM160.369 62.2422C159.943 62.2422 159.598 62.375 159.332 62.6406C159.07 62.9023 158.939 63.2598 158.939 63.7129C158.939 64.1465 159.068 64.498 159.326 64.7676C159.588 65.0332 159.936 65.166 160.369 65.166C160.803 65.166 161.148 65.0332 161.406 64.7676C161.668 64.498 161.799 64.1465 161.799 63.7129C161.799 63.2793 161.664 62.9258 161.395 62.6523C161.125 62.3789 160.783 62.2422 160.369 62.2422Z" fill="#5177FF"/>
<path d="M23.2715 106H22.1816V98.7754L19.9961 99.5781V98.5938L23.1016 97.4277H23.2715V106Z" fill="#FF0303"/>
<path d="M178.299 101H172.709V100.221L175.662 96.9395C176.1 96.4434 176.4 96.041 176.564 95.7324C176.732 95.4199 176.816 95.0977 176.816 94.7656C176.816 94.3203 176.682 93.9551 176.412 93.6699C176.143 93.3848 175.783 93.2422 175.334 93.2422C174.795 93.2422 174.375 93.3965 174.074 93.7051C173.777 94.0098 173.629 94.4355 173.629 94.9824H172.545C172.545 94.1973 172.797 93.5625 173.301 93.0781C173.809 92.5938 174.486 92.3516 175.334 92.3516C176.127 92.3516 176.754 92.5605 177.215 92.9785C177.676 93.3926 177.906 93.9453 177.906 94.6367C177.906 95.4766 177.371 96.4766 176.301 97.6367L174.016 100.115H178.299V101Z" fill="#FF0303"/>
</svg>
