<svg width="200" height="200" viewBox="0 0 200 200" fill="none" xmlns="http://www.w3.org/2000/svg">
<path d="M80.223 173L120.314 26.9999" stroke="#848484"/>
<path d="M100 100L84.8425 156.569H43.4315V115.157L100 100Z" fill="white" stroke="black" stroke-width="4" stroke-linejoin="round"/>
<path d="M100 99.9999L43.4315 115.157V84.8424L100 99.9999Z" fill="white" stroke="black" stroke-width="4" stroke-linejoin="round"/>
<path d="M100 99.9999L43.4315 84.8424L58.589 58.5889L100 99.9999Z" fill="white" stroke="black" stroke-width="4" stroke-linejoin="round"/>
<path d="M100 99.9999L58.589 58.5889L84.8425 43.4314L100 99.9999Z" fill="white" stroke="black" stroke-width="4" stroke-linejoin="round"/>
<path d="M100 99.9999L84.8425 43.4314H115.157L100 99.9999Z" fill="white" stroke="black" stroke-width="4" stroke-linejoin="round"/>
<path d="M100 99.9999L115.157 43.4314L141.411 58.5889L100 99.9999Z" fill="white" stroke="black" stroke-width="4" stroke-linejoin="round"/>
<path d="M100 99.9999L141.411 58.5889L156.569 84.8424L100 99.9999Z" fill="white" stroke="black" stroke-width="4" stroke-linejoin="round"/>
<path d="M100 99.9999L156.569 84.8424L177.274 120.705L141.411 141.411L100 99.9999Z" fill="white" stroke="black" stroke-width="4" stroke-linejoin="round"/>
<path d="M100 100L141.411 141.411L120.706 177.274L84.8425 156.569L100 100Z" fill="white" stroke="black" stroke-width="4" stroke-linejoin="round"/>
<path d="M178.271 101H177.182V93.7754L174.996 94.5781V93.5938L178.102 92.4277H178.271V101Z" fill="#FF0303"/>
<path d="M59.2852 168.207H60.0996C60.6113 168.199 61.0137 168.064 61.3066 167.803C61.5996 167.541 61.7461 167.188 61.7461 166.742C61.7461 165.742 61.248 165.242 60.252 165.242C59.7832 165.242 59.4082 165.377 59.127 165.646C58.8496 165.912 58.7109 166.266 58.7109 166.707H57.627C57.627 166.031 57.873 165.471 58.3652 165.025C58.8613 164.576 59.4902 164.352 60.252 164.352C61.0566 164.352 61.6875 164.564 62.1445 164.99C62.6016 165.416 62.8301 166.008 62.8301 166.766C62.8301 167.137 62.709 167.496 62.4668 167.844C62.2285 168.191 61.9023 168.451 61.4883 168.623C61.957 168.771 62.3184 169.018 62.5723 169.361C62.8301 169.705 62.959 170.125 62.959 170.621C62.959 171.387 62.709 171.994 62.209 172.443C61.709 172.893 61.0586 173.117 60.2578 173.117C59.457 173.117 58.8047 172.9 58.3008 172.467C57.8008 172.033 57.5508 171.461 57.5508 170.75H58.6406C58.6406 171.199 58.7871 171.559 59.0801 171.828C59.373 172.098 59.7656 172.232 60.2578 172.232C60.7812 172.232 61.1816 172.096 61.459 171.822C61.7363 171.549 61.875 171.156 61.875 170.645C61.875 170.148 61.7227 169.768 61.418 169.502C61.1133 169.236 60.6738 169.1 60.0996 169.092H59.2852V168.207Z" fill="#FF0303"/>
<path d="M32.2715 106H31.1816V98.7754L28.9961 99.5781V98.5938L32.1016 97.4277H32.2715V106Z" fill="#5177FF"/>
<path d="M161.963 61.4629V62.3828H161.764C160.92 62.3984 160.248 62.6484 159.748 63.1328C159.248 63.6172 158.959 64.2988 158.881 65.1777C159.33 64.6621 159.943 64.4043 160.721 64.4043C161.463 64.4043 162.055 64.666 162.496 65.1895C162.941 65.7129 163.164 66.3887 163.164 67.2168C163.164 68.0957 162.924 68.7988 162.443 69.3262C161.967 69.8535 161.326 70.1172 160.521 70.1172C159.705 70.1172 159.043 69.8047 158.535 69.1797C158.027 68.5508 157.773 67.7422 157.773 66.7539V66.3379C157.773 64.7676 158.107 63.5684 158.775 62.7402C159.447 61.9082 160.445 61.4824 161.77 61.4629H161.963ZM160.539 65.3066C160.168 65.3066 159.826 65.418 159.514 65.6406C159.201 65.8633 158.984 66.1426 158.863 66.4785V66.877C158.863 67.5801 159.021 68.1465 159.338 68.5762C159.654 69.0059 160.049 69.2207 160.521 69.2207C161.01 69.2207 161.393 69.041 161.67 68.6816C161.951 68.3223 162.092 67.8516 162.092 67.2695C162.092 66.6836 161.949 66.2109 161.664 65.8516C161.383 65.4883 161.008 65.3066 160.539 65.3066Z" fill="#5177FF"/>
</svg>
