<svg width="200" height="200" viewBox="0 0 200 200" fill="none" xmlns="http://www.w3.org/2000/svg">
<path d="M80.223 173L120.314 26.9999" stroke="#848484"/>
<path d="M100 100L84.8425 156.569H43.4315V115.157L100 100Z" fill="white" stroke="black" stroke-width="4" stroke-linejoin="round"/>
<path d="M100 99.9999L43.4315 115.157V84.8424L100 99.9999Z" fill="white" stroke="black" stroke-width="4" stroke-linejoin="round"/>
<path d="M100 99.9999L43.4315 84.8424L58.589 58.5889L100 99.9999Z" fill="white" stroke="black" stroke-width="4" stroke-linejoin="round"/>
<path d="M100 99.9999L58.589 58.5889L84.8425 43.4314L100 99.9999Z" fill="white" stroke="black" stroke-width="4" stroke-linejoin="round"/>
<path d="M100 99.9999L84.8425 43.4314H115.157L100 99.9999Z" fill="white" stroke="black" stroke-width="4" stroke-linejoin="round"/>
<path d="M100 99.9999L115.157 43.4314L141.411 58.5889L100 99.9999Z" fill="white" stroke="black" stroke-width="4" stroke-linejoin="round"/>
<path d="M100 99.9999L141.411 58.5889L156.569 84.8424L100 99.9999Z" fill="white" stroke="black" stroke-width="4" stroke-linejoin="round"/>
<path d="M100 99.9999L156.569 84.8424V115.157L100 99.9999Z" fill="white" stroke="black" stroke-width="4" stroke-linejoin="round"/>
<path d="M100 100L156.569 115.157L141.411 141.411L100 100Z" fill="white" stroke="black" stroke-width="4" stroke-linejoin="round"/>
<path d="M100 100L141.411 141.411L120.706 177.274L84.8425 156.569L100 100Z" fill="white" stroke="black" stroke-width="4" stroke-linejoin="round"/>
<path d="M61.2715 172H60.1816V164.775L57.9961 165.578V164.594L61.1016 163.428H61.2715V172Z" fill="#FF0303"/>
<path d="M143.299 168H137.709V167.221L140.662 163.939C141.1 163.443 141.4 163.041 141.564 162.732C141.732 162.42 141.816 162.098 141.816 161.766C141.816 161.32 141.682 160.955 141.412 160.67C141.143 160.385 140.783 160.242 140.334 160.242C139.795 160.242 139.375 160.396 139.074 160.705C138.777 161.01 138.629 161.436 138.629 161.982H137.545C137.545 161.197 137.797 160.562 138.301 160.078C138.809 159.594 139.486 159.352 140.334 159.352C141.127 159.352 141.754 159.561 142.215 159.979C142.676 160.393 142.906 160.945 142.906 161.637C142.906 162.477 142.371 163.477 141.301 164.637L139.016 167.115H143.299V168Z" fill="#FF0303"/>
<path d="M32.2715 106H31.1816V98.7754L28.9961 99.5781V98.5938L32.1016 97.4277H32.2715V106Z" fill="#5177FF"/>
<path d="M160.883 132.695C160.883 133.121 160.77 133.5 160.543 133.832C160.32 134.164 160.018 134.424 159.635 134.611C160.08 134.803 160.432 135.082 160.689 135.449C160.951 135.816 161.082 136.232 161.082 136.697C161.082 137.436 160.832 138.023 160.332 138.461C159.836 138.898 159.182 139.117 158.369 139.117C157.549 139.117 156.891 138.898 156.395 138.461C155.902 138.02 155.656 137.432 155.656 136.697C155.656 136.236 155.781 135.82 156.031 135.449C156.285 135.078 156.635 134.797 157.08 134.605C156.701 134.418 156.402 134.158 156.184 133.826C155.965 133.494 155.855 133.117 155.855 132.695C155.855 131.977 156.086 131.406 156.547 130.984C157.008 130.562 157.615 130.352 158.369 130.352C159.119 130.352 159.725 130.562 160.186 130.984C160.65 131.406 160.883 131.977 160.883 132.695ZM159.998 136.674C159.998 136.197 159.846 135.809 159.541 135.508C159.24 135.207 158.846 135.057 158.357 135.057C157.869 135.057 157.477 135.205 157.18 135.502C156.887 135.799 156.74 136.189 156.74 136.674C156.74 137.158 156.883 137.539 157.168 137.816C157.457 138.094 157.857 138.232 158.369 138.232C158.877 138.232 159.275 138.094 159.564 137.816C159.854 137.535 159.998 137.154 159.998 136.674ZM158.369 131.242C157.943 131.242 157.598 131.375 157.332 131.641C157.07 131.902 156.939 132.26 156.939 132.713C156.939 133.146 157.068 133.498 157.326 133.768C157.588 134.033 157.936 134.166 158.369 134.166C158.803 134.166 159.148 134.033 159.406 133.768C159.668 133.498 159.799 133.146 159.799 132.713C159.799 132.279 159.664 131.926 159.395 131.652C159.125 131.379 158.783 131.242 158.369 131.242Z" fill="#5177FF"/>
</svg>
