<svg width="200" height="200" viewBox="0 0 200 200" fill="none" xmlns="http://www.w3.org/2000/svg">
<path d="M81.223 171L121.314 25.0001" stroke="#848484"/>
<path d="M103 98.2942L118.157 41.7256L144.411 56.8831L103 98.2942Z" fill="white" stroke="black" stroke-width="4" stroke-linejoin="round"/>
<path d="M103 98.2944L144.411 56.8834L180.274 77.5889L159.569 113.452L103 98.2944Z" fill="white" stroke="black" stroke-width="4" stroke-linejoin="round"/>
<path d="M103 98.2943L159.569 113.452L144.411 139.705L103 98.2943Z" fill="white" stroke="black" stroke-width="4" stroke-linejoin="round"/>
<path d="M103 98.2943L144.411 139.705L123.705 175.568L87.8425 154.863L103 98.2943Z" fill="white" stroke="black" stroke-width="4" stroke-linejoin="round"/>
<path d="M103 98.2943L87.8425 154.863L46.4314 154.863L46.4314 113.452L103 98.2943Z" fill="white" stroke="black" stroke-width="4" stroke-linejoin="round"/>
<path d="M103 98.2942L46.4314 113.452L25.7259 77.5886L61.589 56.8831L103 98.2942Z" fill="white" stroke="black" stroke-width="4" stroke-linejoin="round"/>
<path d="M103 98.2942L61.589 56.8831L87.8425 41.7256L103 98.2942Z" fill="white" stroke="black" stroke-width="4" stroke-linejoin="round"/>
<path d="M103 98.2942L87.8425 41.7256L118.157 41.7256L103 98.2942Z" fill="white" stroke="black" stroke-width="4" stroke-linejoin="round"/>
<path d="M166.207 58.7227L166.641 54.4688H171.012V55.4707H167.561L167.303 57.7969C167.721 57.5508 168.195 57.4277 168.727 57.4277C169.504 57.4277 170.121 57.6855 170.578 58.2012C171.035 58.7129 171.264 59.4062 171.264 60.2812C171.264 61.1602 171.025 61.8535 170.549 62.3613C170.076 62.8652 169.414 63.1172 168.562 63.1172C167.809 63.1172 167.193 62.9082 166.717 62.4902C166.24 62.0723 165.969 61.4941 165.902 60.7559H166.928C166.994 61.2441 167.168 61.6133 167.449 61.8633C167.73 62.1094 168.102 62.2324 168.562 62.2324C169.066 62.2324 169.461 62.0605 169.746 61.7168C170.035 61.373 170.18 60.8984 170.18 60.293C170.18 59.7227 170.023 59.2656 169.711 58.9219C169.402 58.5742 168.99 58.4004 168.475 58.4004C168.002 58.4004 167.631 58.5039 167.361 58.7109L167.074 58.9453L166.207 58.7227Z" fill="#FF0303"/>
<path d="M24.8828 97.6953C24.8828 98.1211 24.7695 98.5 24.543 98.832C24.3203 99.1641 24.0176 99.4238 23.6348 99.6113C24.0801 99.8027 24.4316 100.082 24.6895 100.449C24.9512 100.816 25.082 101.232 25.082 101.697C25.082 102.436 24.832 103.023 24.332 103.461C23.8359 103.898 23.1816 104.117 22.3691 104.117C21.5488 104.117 20.8906 103.898 20.3945 103.461C19.9023 103.02 19.6562 102.432 19.6562 101.697C19.6562 101.236 19.7812 100.82 20.0312 100.449C20.2852 100.078 20.6348 99.7969 21.0801 99.6055C20.7012 99.418 20.4023 99.1582 20.1836 98.8262C19.9648 98.4941 19.8555 98.1172 19.8555 97.6953C19.8555 96.9766 20.0859 96.4062 20.5469 95.9844C21.0078 95.5625 21.6152 95.3516 22.3691 95.3516C23.1191 95.3516 23.7246 95.5625 24.1855 95.9844C24.6504 96.4062 24.8828 96.9766 24.8828 97.6953ZM23.998 101.674C23.998 101.197 23.8457 100.809 23.541 100.508C23.2402 100.207 22.8457 100.057 22.3574 100.057C21.8691 100.057 21.4766 100.205 21.1797 100.502C20.8867 100.799 20.7402 101.189 20.7402 101.674C20.7402 102.158 20.8828 102.539 21.168 102.816C21.457 103.094 21.8574 103.232 22.3691 103.232C22.877 103.232 23.2754 103.094 23.5645 102.816C23.8535 102.535 23.998 102.154 23.998 101.674ZM22.3691 96.2422C21.9434 96.2422 21.5977 96.375 21.332 96.6406C21.0703 96.9023 20.9395 97.2598 20.9395 97.7129C20.9395 98.1465 21.0684 98.498 21.3262 98.7676C21.5879 99.0332 21.9355 99.166 22.3691 99.166C22.8027 99.166 23.1484 99.0332 23.4062 98.7676C23.668 98.498 23.7988 98.1465 23.7988 97.7129C23.7988 97.2793 23.6641 96.9258 23.3945 96.6523C23.125 96.3789 22.7832 96.2422 22.3691 96.2422Z" fill="#FF0303"/>
<path d="M65.207 37.7227L65.6406 33.4688H70.0117V34.4707H66.5605L66.3027 36.7969C66.7207 36.5508 67.1953 36.4277 67.7266 36.4277C68.5039 36.4277 69.1211 36.6855 69.5781 37.2012C70.0352 37.7129 70.2637 38.4062 70.2637 39.2812C70.2637 40.1602 70.0254 40.8535 69.5488 41.3613C69.0762 41.8652 68.4141 42.1172 67.5625 42.1172C66.8086 42.1172 66.1934 41.9082 65.7168 41.4902C65.2402 41.0723 64.9688 40.4941 64.9023 39.7559H65.9277C65.9941 40.2441 66.168 40.6133 66.4492 40.8633C66.7305 41.1094 67.1016 41.2324 67.5625 41.2324C68.0664 41.2324 68.4609 41.0605 68.7461 40.7168C69.0352 40.373 69.1797 39.8984 69.1797 39.293C69.1797 38.7227 69.0234 38.2656 68.7109 37.9219C68.4023 37.5742 67.9902 37.4004 67.4746 37.4004C67.002 37.4004 66.6309 37.5039 66.3613 37.7109L66.0742 37.9453L65.207 37.7227Z" fill="#5177FF"/>
<path d="M139.883 36.6953C139.883 37.1211 139.77 37.5 139.543 37.832C139.32 38.1641 139.018 38.4238 138.635 38.6113C139.08 38.8027 139.432 39.082 139.689 39.4492C139.951 39.8164 140.082 40.2324 140.082 40.6973C140.082 41.4355 139.832 42.0234 139.332 42.4609C138.836 42.8984 138.182 43.1172 137.369 43.1172C136.549 43.1172 135.891 42.8984 135.395 42.4609C134.902 42.0195 134.656 41.4316 134.656 40.6973C134.656 40.2363 134.781 39.8203 135.031 39.4492C135.285 39.0781 135.635 38.7969 136.08 38.6055C135.701 38.418 135.402 38.1582 135.184 37.8262C134.965 37.4941 134.855 37.1172 134.855 36.6953C134.855 35.9766 135.086 35.4062 135.547 34.9844C136.008 34.5625 136.615 34.3516 137.369 34.3516C138.119 34.3516 138.725 34.5625 139.186 34.9844C139.65 35.4062 139.883 35.9766 139.883 36.6953ZM138.998 40.6738C138.998 40.1973 138.846 39.8086 138.541 39.5078C138.24 39.207 137.846 39.0566 137.357 39.0566C136.869 39.0566 136.477 39.2051 136.18 39.502C135.887 39.7988 135.74 40.1895 135.74 40.6738C135.74 41.1582 135.883 41.5391 136.168 41.8164C136.457 42.0938 136.857 42.2324 137.369 42.2324C137.877 42.2324 138.275 42.0938 138.564 41.8164C138.854 41.5352 138.998 41.1543 138.998 40.6738ZM137.369 35.2422C136.943 35.2422 136.598 35.375 136.332 35.6406C136.07 35.9023 135.939 36.2598 135.939 36.7129C135.939 37.1465 136.068 37.498 136.326 37.7676C136.588 38.0332 136.936 38.166 137.369 38.166C137.803 38.166 138.148 38.0332 138.406 37.7676C138.668 37.498 138.799 37.1465 138.799 36.7129C138.799 36.2793 138.664 35.9258 138.395 35.6523C138.125 35.3789 137.783 35.2422 137.369 35.2422Z" fill="#5177FF"/>
</svg>
