<svg width="200" height="200" viewBox="0 0 200 200" fill="none" xmlns="http://www.w3.org/2000/svg">
<path d="M79.223 173L119.314 27.0001" stroke="#848484"/>
<path d="M100 100L84.8425 156.569H43.4315V115.157L100 100Z" fill="white" stroke="black" stroke-width="4" stroke-linejoin="round"/>
<path d="M100 99.9999L43.4315 115.157L22.7259 79.2944L58.589 58.5889L100 99.9999Z" fill="white" stroke="black" stroke-width="4" stroke-linejoin="round"/>
<path d="M100 99.9999L58.589 58.5889L84.8425 43.4314L100 99.9999Z" fill="white" stroke="black" stroke-width="4" stroke-linejoin="round"/>
<path d="M100 99.9999L84.8425 43.4314H115.157L100 99.9999Z" fill="white" stroke="black" stroke-width="4" stroke-linejoin="round"/>
<path d="M100 99.9999L115.157 43.4314L141.411 58.5889L100 99.9999Z" fill="white" stroke="black" stroke-width="4" stroke-linejoin="round"/>
<path d="M100 99.9999L141.411 58.5889L177.274 79.2944L156.569 115.157L100 99.9999Z" fill="white" stroke="black" stroke-width="4" stroke-linejoin="round"/>
<path d="M100 100L156.569 115.157V156.569H115.157L100 100Z" fill="white" stroke="black" stroke-width="4" stroke-linejoin="round"/>
<path d="M100 100L115.157 156.569H84.8425L100 100Z" fill="white" stroke="black" stroke-width="4" stroke-linejoin="round"/>
<path d="M65.207 39.7227L65.6406 35.4688H70.0117V36.4707H66.5605L66.3027 38.7969C66.7207 38.5508 67.1953 38.4277 67.7266 38.4277C68.5039 38.4277 69.1211 38.6855 69.5781 39.2012C70.0352 39.7129 70.2637 40.4062 70.2637 41.2812C70.2637 42.1602 70.0254 42.8535 69.5488 43.3613C69.0762 43.8652 68.4141 44.1172 67.5625 44.1172C66.8086 44.1172 66.1934 43.9082 65.7168 43.4902C65.2402 43.0723 64.9688 42.4941 64.9023 41.7559H65.9277C65.9941 42.2441 66.168 42.6133 66.4492 42.8633C66.7305 43.1094 67.1016 43.2324 67.5625 43.2324C68.0664 43.2324 68.4609 43.0605 68.7461 42.7168C69.0352 42.373 69.1797 41.8984 69.1797 41.293C69.1797 40.7227 69.0234 40.2656 68.7109 39.9219C68.4023 39.5742 67.9902 39.4004 67.4746 39.4004C67.002 39.4004 66.6309 39.5039 66.3613 39.7109L66.0742 39.9453L65.207 39.7227Z" fill="#5177FF"/>
<path d="M102.883 165.695C102.883 166.121 102.77 166.5 102.543 166.832C102.32 167.164 102.018 167.424 101.635 167.611C102.08 167.803 102.432 168.082 102.689 168.449C102.951 168.816 103.082 169.232 103.082 169.697C103.082 170.436 102.832 171.023 102.332 171.461C101.836 171.898 101.182 172.117 100.369 172.117C99.5488 172.117 98.8906 171.898 98.3945 171.461C97.9023 171.02 97.6562 170.432 97.6562 169.697C97.6562 169.236 97.7812 168.82 98.0312 168.449C98.2852 168.078 98.6348 167.797 99.0801 167.605C98.7012 167.418 98.4023 167.158 98.1836 166.826C97.9648 166.494 97.8555 166.117 97.8555 165.695C97.8555 164.977 98.0859 164.406 98.5469 163.984C99.0078 163.562 99.6152 163.352 100.369 163.352C101.119 163.352 101.725 163.562 102.186 163.984C102.65 164.406 102.883 164.977 102.883 165.695ZM101.998 169.674C101.998 169.197 101.846 168.809 101.541 168.508C101.24 168.207 100.846 168.057 100.357 168.057C99.8691 168.057 99.4766 168.205 99.1797 168.502C98.8867 168.799 98.7402 169.189 98.7402 169.674C98.7402 170.158 98.8828 170.539 99.168 170.816C99.457 171.094 99.8574 171.232 100.369 171.232C100.877 171.232 101.275 171.094 101.564 170.816C101.854 170.535 101.998 170.154 101.998 169.674ZM100.369 164.242C99.9434 164.242 99.5977 164.375 99.332 164.641C99.0703 164.902 98.9395 165.26 98.9395 165.713C98.9395 166.146 99.0684 166.498 99.3262 166.768C99.5879 167.033 99.9355 167.166 100.369 167.166C100.803 167.166 101.148 167.033 101.406 166.768C101.668 166.498 101.799 166.146 101.799 165.713C101.799 165.279 101.664 164.926 101.395 164.652C101.125 164.379 100.783 164.242 100.369 164.242Z" fill="#5177FF"/>
<path d="M163.207 60.7227L163.641 56.4688H168.012V57.4707H164.561L164.303 59.7969C164.721 59.5508 165.195 59.4277 165.727 59.4277C166.504 59.4277 167.121 59.6855 167.578 60.2012C168.035 60.7129 168.264 61.4062 168.264 62.2812C168.264 63.1602 168.025 63.8535 167.549 64.3613C167.076 64.8652 166.414 65.1172 165.562 65.1172C164.809 65.1172 164.193 64.9082 163.717 64.4902C163.24 64.0723 162.969 63.4941 162.902 62.7559H163.928C163.994 63.2441 164.168 63.6133 164.449 63.8633C164.73 64.1094 165.102 64.2324 165.562 64.2324C166.066 64.2324 166.461 64.0605 166.746 63.7168C167.035 63.373 167.18 62.8984 167.18 62.293C167.18 61.7227 167.023 61.2656 166.711 60.9219C166.402 60.5742 165.99 60.4004 165.475 60.4004C165.002 60.4004 164.631 60.5039 164.361 60.7109L164.074 60.9453L163.207 60.7227Z" fill="#FF0303"/>
<path d="M28.8828 99.6953C28.8828 100.121 28.7695 100.5 28.543 100.832C28.3203 101.164 28.0176 101.424 27.6348 101.611C28.0801 101.803 28.4316 102.082 28.6895 102.449C28.9512 102.816 29.082 103.232 29.082 103.697C29.082 104.436 28.832 105.023 28.332 105.461C27.8359 105.898 27.1816 106.117 26.3691 106.117C25.5488 106.117 24.8906 105.898 24.3945 105.461C23.9023 105.02 23.6562 104.432 23.6562 103.697C23.6562 103.236 23.7812 102.82 24.0312 102.449C24.2852 102.078 24.6348 101.797 25.0801 101.605C24.7012 101.418 24.4023 101.158 24.1836 100.826C23.9648 100.494 23.8555 100.117 23.8555 99.6953C23.8555 98.9766 24.0859 98.4062 24.5469 97.9844C25.0078 97.5625 25.6152 97.3516 26.3691 97.3516C27.1191 97.3516 27.7246 97.5625 28.1855 97.9844C28.6504 98.4062 28.8828 98.9766 28.8828 99.6953ZM27.998 103.674C27.998 103.197 27.8457 102.809 27.541 102.508C27.2402 102.207 26.8457 102.057 26.3574 102.057C25.8691 102.057 25.4766 102.205 25.1797 102.502C24.8867 102.799 24.7402 103.189 24.7402 103.674C24.7402 104.158 24.8828 104.539 25.168 104.816C25.457 105.094 25.8574 105.232 26.3691 105.232C26.877 105.232 27.2754 105.094 27.5645 104.816C27.8535 104.535 27.998 104.154 27.998 103.674ZM26.3691 98.2422C25.9434 98.2422 25.5977 98.375 25.332 98.6406C25.0703 98.9023 24.9395 99.2598 24.9395 99.7129C24.9395 100.146 25.0684 100.498 25.3262 100.768C25.5879 101.033 25.9355 101.166 26.3691 101.166C26.8027 101.166 27.1484 101.033 27.4062 100.768C27.668 100.498 27.7988 100.146 27.7988 99.7129C27.7988 99.2793 27.6641 98.9258 27.3945 98.6523C27.125 98.3789 26.7832 98.2422 26.3691 98.2422Z" fill="#FF0303"/>
</svg>
