<svg width="200" height="200" viewBox="0 0 200 200" fill="none" xmlns="http://www.w3.org/2000/svg">
<path d="M80.223 172L120.314 26.0001" stroke="#848484"/>
<path d="M100 100L84.8425 156.569H43.4315V115.157L100 100Z" fill="white" stroke="black" stroke-width="4" stroke-linejoin="round"/>
<path d="M100 100L43.4315 115.158V84.8425L100 100Z" fill="white" stroke="black" stroke-width="4" stroke-linejoin="round"/>
<path d="M100 99.9999L43.4315 84.8424L58.589 58.5889L100 99.9999Z" fill="white" stroke="black" stroke-width="4" stroke-linejoin="round"/>
<path d="M100 99.9999L58.589 58.5889L84.8425 43.4314L100 99.9999Z" fill="white" stroke="black" stroke-width="4" stroke-linejoin="round"/>
<path d="M100 99.9999L84.8425 43.4314H115.157L100 99.9999Z" fill="white" stroke="black" stroke-width="4" stroke-linejoin="round"/>
<path d="M100 99.9999L115.157 43.4314H156.569V84.8424L100 99.9999Z" fill="white" stroke="black" stroke-width="4" stroke-linejoin="round"/>
<path d="M100 100L156.569 84.8425L177.274 120.706L141.411 141.411L100 100Z" fill="white" stroke="black" stroke-width="4" stroke-linejoin="round"/>
<path d="M100 100L141.411 141.411L115.157 156.569L100 100Z" fill="white" stroke="black" stroke-width="4" stroke-linejoin="round"/>
<path d="M100 100L115.157 156.569H84.8425L100 100Z" fill="white" stroke="black" stroke-width="4" stroke-linejoin="round"/>
<path d="M63.2715 173H62.1816V165.775L59.9961 166.578V165.594L63.1016 164.428H63.2715V173Z" fill="#FF0303"/>
<path d="M175.285 95.207H176.1C176.611 95.1992 177.014 95.0645 177.307 94.8027C177.6 94.541 177.746 94.1875 177.746 93.7422C177.746 92.7422 177.248 92.2422 176.252 92.2422C175.783 92.2422 175.408 92.377 175.127 92.6465C174.85 92.9121 174.711 93.2656 174.711 93.707H173.627C173.627 93.0312 173.873 92.4707 174.365 92.0254C174.861 91.5762 175.49 91.3516 176.252 91.3516C177.057 91.3516 177.688 91.5645 178.145 91.9902C178.602 92.416 178.83 93.0078 178.83 93.7656C178.83 94.1367 178.709 94.4961 178.467 94.8438C178.229 95.1914 177.902 95.4512 177.488 95.623C177.957 95.7715 178.318 96.0176 178.572 96.3613C178.83 96.7051 178.959 97.125 178.959 97.6211C178.959 98.3867 178.709 98.9941 178.209 99.4434C177.709 99.8926 177.059 100.117 176.258 100.117C175.457 100.117 174.805 99.9004 174.301 99.4668C173.801 99.0332 173.551 98.4609 173.551 97.75H174.641C174.641 98.1992 174.787 98.5586 175.08 98.8281C175.373 99.0977 175.766 99.2324 176.258 99.2324C176.781 99.2324 177.182 99.0957 177.459 98.8223C177.736 98.5488 177.875 98.1562 177.875 97.6445C177.875 97.1484 177.723 96.7676 177.418 96.502C177.113 96.2363 176.674 96.0996 176.1 96.0918H175.285V95.207Z" fill="#FF0303"/>
<path d="M136.271 163H135.182V155.775L132.996 156.578V155.594L136.102 154.428H136.271V163Z" fill="#5177FF"/>
<path d="M101.963 29.4629V30.3828H101.764C100.92 30.3984 100.248 30.6484 99.748 31.1328C99.248 31.6172 98.959 32.2988 98.8809 33.1777C99.3301 32.6621 99.9434 32.4043 100.721 32.4043C101.463 32.4043 102.055 32.666 102.496 33.1895C102.941 33.7129 103.164 34.3887 103.164 35.2168C103.164 36.0957 102.924 36.7988 102.443 37.3262C101.967 37.8535 101.326 38.1172 100.521 38.1172C99.7051 38.1172 99.043 37.8047 98.5352 37.1797C98.0273 36.5508 97.7734 35.7422 97.7734 34.7539V34.3379C97.7734 32.7676 98.1074 31.5684 98.7754 30.7402C99.4473 29.9082 100.445 29.4824 101.77 29.4629H101.963ZM100.539 33.3066C100.168 33.3066 99.8262 33.418 99.5137 33.6406C99.2012 33.8633 98.9844 34.1426 98.8633 34.4785V34.877C98.8633 35.5801 99.0215 36.1465 99.3379 36.5762C99.6543 37.0059 100.049 37.2207 100.521 37.2207C101.01 37.2207 101.393 37.041 101.67 36.6816C101.951 36.3223 102.092 35.8516 102.092 35.2695C102.092 34.6836 101.949 34.2109 101.664 33.8516C101.383 33.4883 101.008 33.3066 100.539 33.3066Z" fill="#5177FF"/>
</svg>
