<svg width="200" height="200" viewBox="0 0 200 200" fill="none" xmlns="http://www.w3.org/2000/svg">
<path d="M80.223 173L120.314 27.0001" stroke="#848484"/>
<path d="M100 100L84.8425 156.569H43.4315V115.157L100 100Z" fill="white" stroke="black" stroke-width="4" stroke-linejoin="round"/>
<path d="M100 99.9998L43.4315 115.157V84.8423L100 99.9998Z" fill="white" stroke="black" stroke-width="4" stroke-linejoin="round"/>
<path d="M100 99.9999L43.4315 84.8424L58.589 58.5889L100 99.9999Z" fill="white" stroke="black" stroke-width="4" stroke-linejoin="round"/>
<path d="M100 99.9999L58.589 58.5888L79.2945 22.7258L115.158 43.4314L100 99.9999Z" fill="white" stroke="black" stroke-width="4" stroke-linejoin="round"/>
<path d="M100 99.9999L115.157 43.4314L141.411 58.5889L100 99.9999Z" fill="white" stroke="black" stroke-width="4" stroke-linejoin="round"/>
<path d="M100 99.9999L141.411 58.5889L177.274 79.2944L156.569 115.157L100 99.9999Z" fill="white" stroke="black" stroke-width="4" stroke-linejoin="round"/>
<path d="M100 100L156.569 115.157L141.411 141.411L100 100Z" fill="white" stroke="black" stroke-width="4" stroke-linejoin="round"/>
<path d="M100 100L141.411 141.411L120.706 177.274L84.8425 156.569L100 100Z" fill="white" stroke="black" stroke-width="4" stroke-linejoin="round"/>
<path d="M29.207 101.723L29.6406 97.4688H34.0117V98.4707H30.5605L30.3027 100.797C30.7207 100.551 31.1953 100.428 31.7266 100.428C32.5039 100.428 33.1211 100.686 33.5781 101.201C34.0352 101.713 34.2637 102.406 34.2637 103.281C34.2637 104.16 34.0254 104.854 33.5488 105.361C33.0762 105.865 32.4141 106.117 31.5625 106.117C30.8086 106.117 30.1934 105.908 29.7168 105.49C29.2402 105.072 28.9688 104.494 28.9023 103.756H29.9277C29.9941 104.244 30.168 104.613 30.4492 104.863C30.7305 105.109 31.1016 105.232 31.5625 105.232C32.0664 105.232 32.4609 105.061 32.7461 104.717C33.0352 104.373 33.1797 103.898 33.1797 103.293C33.1797 102.723 33.0234 102.266 32.7109 101.922C32.4023 101.574 31.9902 101.4 31.4746 101.4C31.002 101.4 30.6309 101.504 30.3613 101.711L30.0742 101.945L29.207 101.723Z" fill="#5177FF"/>
<path d="M159.883 132.695C159.883 133.121 159.77 133.5 159.543 133.832C159.32 134.164 159.018 134.424 158.635 134.611C159.08 134.803 159.432 135.082 159.689 135.449C159.951 135.816 160.082 136.232 160.082 136.697C160.082 137.436 159.832 138.023 159.332 138.461C158.836 138.898 158.182 139.117 157.369 139.117C156.549 139.117 155.891 138.898 155.395 138.461C154.902 138.02 154.656 137.432 154.656 136.697C154.656 136.236 154.781 135.82 155.031 135.449C155.285 135.078 155.635 134.797 156.08 134.605C155.701 134.418 155.402 134.158 155.184 133.826C154.965 133.494 154.855 133.117 154.855 132.695C154.855 131.977 155.086 131.406 155.547 130.984C156.008 130.562 156.615 130.352 157.369 130.352C158.119 130.352 158.725 130.562 159.186 130.984C159.65 131.406 159.883 131.977 159.883 132.695ZM158.998 136.674C158.998 136.197 158.846 135.809 158.541 135.508C158.24 135.207 157.846 135.057 157.357 135.057C156.869 135.057 156.477 135.205 156.18 135.502C155.887 135.799 155.74 136.189 155.74 136.674C155.74 137.158 155.883 137.539 156.168 137.816C156.457 138.094 156.857 138.232 157.369 138.232C157.877 138.232 158.275 138.094 158.564 137.816C158.854 137.535 158.998 137.154 158.998 136.674ZM157.369 131.242C156.943 131.242 156.598 131.375 156.332 131.641C156.07 131.902 155.939 132.26 155.939 132.713C155.939 133.146 156.068 133.498 156.326 133.768C156.588 134.033 156.936 134.166 157.369 134.166C157.803 134.166 158.148 134.033 158.406 133.768C158.668 133.498 158.799 133.146 158.799 132.713C158.799 132.279 158.664 131.926 158.395 131.652C158.125 131.379 157.783 131.242 157.369 131.242Z" fill="#5177FF"/>
<path d="M135.207 169.723L135.641 165.469H140.012V166.471H136.561L136.303 168.797C136.721 168.551 137.195 168.428 137.727 168.428C138.504 168.428 139.121 168.686 139.578 169.201C140.035 169.713 140.264 170.406 140.264 171.281C140.264 172.16 140.025 172.854 139.549 173.361C139.076 173.865 138.414 174.117 137.562 174.117C136.809 174.117 136.193 173.908 135.717 173.49C135.24 173.072 134.969 172.494 134.902 171.756H135.928C135.994 172.244 136.168 172.613 136.449 172.863C136.73 173.109 137.102 173.232 137.562 173.232C138.066 173.232 138.461 173.061 138.746 172.717C139.035 172.373 139.18 171.898 139.18 171.293C139.18 170.723 139.023 170.266 138.711 169.922C138.402 169.574 137.99 169.4 137.475 169.4C137.002 169.4 136.631 169.504 136.361 169.711L136.074 169.945L135.207 169.723Z" fill="#FF0303"/>
<path d="M167.883 55.6953C167.883 56.1211 167.77 56.5 167.543 56.832C167.32 57.1641 167.018 57.4238 166.635 57.6113C167.08 57.8027 167.432 58.082 167.689 58.4492C167.951 58.8164 168.082 59.2324 168.082 59.6973C168.082 60.4355 167.832 61.0234 167.332 61.4609C166.836 61.8984 166.182 62.1172 165.369 62.1172C164.549 62.1172 163.891 61.8984 163.395 61.4609C162.902 61.0195 162.656 60.4316 162.656 59.6973C162.656 59.2363 162.781 58.8203 163.031 58.4492C163.285 58.0781 163.635 57.7969 164.08 57.6055C163.701 57.418 163.402 57.1582 163.184 56.8262C162.965 56.4941 162.855 56.1172 162.855 55.6953C162.855 54.9766 163.086 54.4062 163.547 53.9844C164.008 53.5625 164.615 53.3516 165.369 53.3516C166.119 53.3516 166.725 53.5625 167.186 53.9844C167.65 54.4062 167.883 54.9766 167.883 55.6953ZM166.998 59.6738C166.998 59.1973 166.846 58.8086 166.541 58.5078C166.24 58.207 165.846 58.0566 165.357 58.0566C164.869 58.0566 164.477 58.2051 164.18 58.502C163.887 58.7988 163.74 59.1895 163.74 59.6738C163.74 60.1582 163.883 60.5391 164.168 60.8164C164.457 61.0938 164.857 61.2324 165.369 61.2324C165.877 61.2324 166.275 61.0938 166.564 60.8164C166.854 60.5352 166.998 60.1543 166.998 59.6738ZM165.369 54.2422C164.943 54.2422 164.598 54.375 164.332 54.6406C164.07 54.9023 163.939 55.2598 163.939 55.7129C163.939 56.1465 164.068 56.498 164.326 56.7676C164.588 57.0332 164.936 57.166 165.369 57.166C165.803 57.166 166.148 57.0332 166.406 56.7676C166.668 56.498 166.799 56.1465 166.799 55.7129C166.799 55.2793 166.664 54.9258 166.395 54.6523C166.125 54.3789 165.783 54.2422 165.369 54.2422Z" fill="#FF0303"/>
</svg>
